G04 ================== begin FILE IDENTIFICATION RECORD ==================*
G04 Layout Name:  C:/Users/user/Desktop/work/avrUSB500/allegro/AVRUSB500kkk1111.brd*
G04 Film Name:    AutsilkBOttOm*
G04 File Format:  Gerber RS274X*
G04 File Origin:  Cadence Allegro 16.6-S034*
G04 Origin Date:  Fri Jul 19 12:47:42 2019*
G04 *
G04 Layer:  MANUFACTURING/AUTOSILK_TOP*
G04 Layer:  MANUFACTURING/AUTOSILK_BOTTOM*
G04 *
G04 Offset:    (0.0000 0.0000)*
G04 Mirror:    No*
G04 Mode:      Positive*
G04 Rotation:  0*
G04 FullContactRelief:  No*
G04 UndefLineWidth:     0.0000*
G04 ================== end FILE IDENTIFICATION RECORD ====================*
%FSLAX55Y55*MOMM*%
%IR0*IPPOS*OFA0.00000B0.00000*MIA0B0*SFA1.00000B1.00000*%
%ADD10C,.2*%
%ADD11C,.203*%
%ADD12C,.254*%
G75*
%LPD*%
G75*
G54D10*
G01X295690Y1660540D02*
X287690Y1666540D01*
X278360Y1670540D01*
X267690D01*
X255690Y1664540D01*
X246360Y1654540D01*
X239690Y1642540D01*
X234360Y1622540D01*
X233030Y1604540D01*
X235690Y1586540D01*
X239690Y1574540D01*
X247690Y1562540D01*
X257030Y1554540D01*
X266360Y1550540D01*
X275690D01*
X285030Y1554540D01*
X293030Y1560540D01*
X299690Y1568540D01*
G01X425100Y1550540D02*
Y1670540D01*
X409100Y1646540D01*
G01Y1550540D02*
X441100D01*
G01X583840Y1670540D02*
X573170Y1666540D01*
X565170Y1656540D01*
X559840Y1644540D01*
X555840Y1628540D01*
X554510Y1610540D01*
X555840Y1592540D01*
X559840Y1576540D01*
X565170Y1564540D01*
X573170Y1554540D01*
X583840Y1550540D01*
X594510Y1554540D01*
X602510Y1564540D01*
X607840Y1576540D01*
X611840Y1592540D01*
X613170Y1610540D01*
X611840Y1628540D01*
X607840Y1644540D01*
X602510Y1656540D01*
X594510Y1666540D01*
X583840Y1670540D01*
G01X1156590Y495100D02*
X1148590Y501100D01*
X1139260Y505100D01*
X1128590D01*
X1116590Y499100D01*
X1107260Y489100D01*
X1100590Y477100D01*
X1095260Y457100D01*
X1093930Y439100D01*
X1096590Y421100D01*
X1100590Y409100D01*
X1108590Y397100D01*
X1117930Y389100D01*
X1127260Y385100D01*
X1136590D01*
X1145930Y389100D01*
X1153930Y395100D01*
X1160590Y403100D01*
G01X1260670Y435100D02*
X1270000Y449100D01*
X1278000Y457100D01*
X1288670Y461100D01*
X1298000Y457100D01*
X1304670Y449100D01*
X1310000Y437100D01*
X1311330Y423100D01*
X1310000Y411100D01*
X1304670Y399100D01*
X1296670Y389100D01*
X1287330Y385100D01*
X1276670Y389100D01*
X1267330Y401100D01*
X1262000Y419100D01*
X1260670Y439100D01*
X1263330Y465100D01*
X1267330Y479100D01*
X1274000Y493100D01*
X1283330Y503100D01*
X1292670Y505100D01*
X1302000Y501100D01*
X1308670Y491100D01*
G01X418130Y3489700D02*
X424800Y3477700D01*
X432800Y3469700D01*
X442130Y3465700D01*
X452800Y3469700D01*
X460800Y3477700D01*
X468800Y3489700D01*
X471470Y3505700D01*
Y3585700D01*
G01X603540Y3465700D02*
Y3585700D01*
X587540Y3561700D01*
G01Y3465700D02*
X619540D01*
G01X1804030Y1257800D02*
X1796030Y1263800D01*
X1786700Y1267800D01*
X1776030D01*
X1764030Y1261800D01*
X1754700Y1251800D01*
X1748030Y1239800D01*
X1742700Y1219800D01*
X1741370Y1201800D01*
X1744030Y1183800D01*
X1748030Y1171800D01*
X1756030Y1159800D01*
X1765370Y1151800D01*
X1774700Y1147800D01*
X1784030D01*
X1793370Y1151800D01*
X1801370Y1157800D01*
X1808030Y1165800D01*
G01X1904110D02*
X1912110Y1155800D01*
X1921440Y1149800D01*
X1933440Y1147800D01*
X1945440Y1151800D01*
X1954770Y1159800D01*
X1961440Y1173800D01*
X1962770Y1189800D01*
X1960110Y1205800D01*
X1953440Y1215800D01*
X1944110Y1223800D01*
X1934770Y1225800D01*
X1925440Y1223800D01*
X1913440Y1215800D01*
X1917440Y1267800D01*
X1953440D01*
G01X1691190Y1471000D02*
Y1591000D01*
X1724530D01*
X1735190Y1585000D01*
X1741860Y1577000D01*
X1744530Y1561000D01*
X1741860Y1545000D01*
X1733860Y1535000D01*
X1724530Y1529000D01*
X1691190D01*
G01X1724530D02*
X1744530Y1471000D01*
G01X1851270Y1571000D02*
X1859270Y1583000D01*
X1868600Y1589000D01*
X1879270Y1591000D01*
X1892600Y1587000D01*
X1901930Y1577000D01*
X1904600Y1565000D01*
X1903270Y1553000D01*
X1897930Y1543000D01*
X1871270Y1523000D01*
X1859270Y1509000D01*
X1851270Y1489000D01*
X1848600Y1471000D01*
X1904600D01*
G01X1691190Y1979000D02*
Y2099000D01*
X1724530D01*
X1735190Y2093000D01*
X1741860Y2085000D01*
X1744530Y2069000D01*
X1741860Y2053000D01*
X1733860Y2043000D01*
X1724530Y2037000D01*
X1691190D01*
G01X1724530D02*
X1744530Y1979000D01*
G01X1847270Y2003000D02*
X1855270Y1989000D01*
X1865930Y1981000D01*
X1877930Y1979000D01*
X1888600Y1981000D01*
X1899270Y1991000D01*
X1905930Y2003000D01*
X1907270Y2015000D01*
X1904600Y2029000D01*
X1895270Y2039000D01*
X1885930Y2043000D01*
X1873930D01*
G01X1885930D02*
X1893930Y2049000D01*
X1900600Y2059000D01*
X1903270Y2071000D01*
X1900600Y2083000D01*
X1893930Y2093000D01*
X1881930Y2099000D01*
X1869930Y2097000D01*
X1857930Y2089000D01*
G01X1691190Y2487000D02*
Y2607000D01*
X1724530D01*
X1735190Y2601000D01*
X1741860Y2593000D01*
X1744530Y2577000D01*
X1741860Y2561000D01*
X1733860Y2551000D01*
X1724530Y2545000D01*
X1691190D01*
G01X1724530D02*
X1744530Y2487000D01*
G01X1892600D02*
Y2607000D01*
X1843270Y2521000D01*
X1909930D01*
G01X1532450Y2995000D02*
Y3115000D01*
X1565790D01*
X1576450Y3109000D01*
X1583120Y3101000D01*
X1585790Y3085000D01*
X1583120Y3069000D01*
X1575120Y3059000D01*
X1565790Y3053000D01*
X1532450D01*
G01X1565790D02*
X1585790Y2995000D01*
G01X1717860D02*
Y3115000D01*
X1701860Y3091000D01*
G01Y2995000D02*
X1733860D01*
G01X1892600D02*
Y3115000D01*
X1843270Y3029000D01*
X1909930D01*
G01X1964560Y3688930D02*
X1971230Y3676930D01*
X1979230Y3668930D01*
X1988560Y3664930D01*
X1999230Y3668930D01*
X2007230Y3676930D01*
X2015230Y3688930D01*
X2017900Y3704930D01*
Y3784930D01*
G01X2165970Y3664930D02*
Y3784930D01*
X2116640Y3698930D01*
X2183300D01*
G01X3404230Y1422900D02*
X3396230Y1428900D01*
X3386900Y1432900D01*
X3376230D01*
X3364230Y1426900D01*
X3354900Y1416900D01*
X3348230Y1404900D01*
X3342900Y1384900D01*
X3341570Y1366900D01*
X3344230Y1348900D01*
X3348230Y1336900D01*
X3356230Y1324900D01*
X3365570Y1316900D01*
X3374900Y1312900D01*
X3384230D01*
X3393570Y1316900D01*
X3401570Y1322900D01*
X3408230Y1330900D01*
G01X3504310Y1336900D02*
X3512310Y1322900D01*
X3522970Y1314900D01*
X3534970Y1312900D01*
X3545640Y1314900D01*
X3556310Y1324900D01*
X3562970Y1336900D01*
X3564310Y1348900D01*
X3561640Y1362900D01*
X3552310Y1372900D01*
X3542970Y1376900D01*
X3530970D01*
G01X3542970D02*
X3550970Y1382900D01*
X3557640Y1392900D01*
X3560310Y1404900D01*
X3557640Y1416900D01*
X3550970Y1426900D01*
X3538970Y1432900D01*
X3526970Y1430900D01*
X3514970Y1422900D01*
G01X2820030Y1257800D02*
X2812030Y1263800D01*
X2802700Y1267800D01*
X2792030D01*
X2780030Y1261800D01*
X2770700Y1251800D01*
X2764030Y1239800D01*
X2758700Y1219800D01*
X2757370Y1201800D01*
X2760030Y1183800D01*
X2764030Y1171800D01*
X2772030Y1159800D01*
X2781370Y1151800D01*
X2790700Y1147800D01*
X2800030D01*
X2809370Y1151800D01*
X2817370Y1157800D01*
X2824030Y1165800D01*
G01X2926770Y1161800D02*
X2936110Y1151800D01*
X2946770Y1147800D01*
X2957440Y1151800D01*
X2966770Y1163800D01*
X2973440Y1181800D01*
X2976110Y1199800D01*
Y1221800D01*
X2973440Y1239800D01*
X2966770Y1255800D01*
X2958770Y1263800D01*
X2949440Y1267800D01*
X2938770Y1263800D01*
X2930770Y1255800D01*
X2925440Y1243800D01*
X2922770Y1227800D01*
X2925440Y1213800D01*
X2932110Y1199800D01*
X2940110Y1191800D01*
X2949440Y1189800D01*
X2960110Y1193800D01*
X2968110Y1203800D01*
X2976110Y1221800D01*
G01X3908560Y1344000D02*
Y1398000D01*
X3881890Y1464000D01*
G01X3935230D02*
X3908560Y1398000D01*
G01X4041970Y1444000D02*
X4049970Y1456000D01*
X4059300Y1462000D01*
X4069970Y1464000D01*
X4083300Y1460000D01*
X4092630Y1450000D01*
X4095300Y1438000D01*
X4093970Y1426000D01*
X4088630Y1416000D01*
X4061970Y1396000D01*
X4049970Y1382000D01*
X4041970Y1362000D01*
X4039300Y1344000D01*
X4095300D01*
G01X5572000Y722000D02*
Y842000D01*
G01Y824000D02*
X5565330Y834000D01*
X5558670Y840000D01*
X5548000Y842000D01*
X5538670Y840000D01*
X5529330Y830000D01*
X5525330Y816000D01*
X5524000Y802000D01*
X5525330Y788000D01*
X5529330Y774000D01*
X5537330Y766000D01*
X5548000Y762000D01*
X5557330Y764000D01*
X5566670Y770000D01*
X5572000Y778000D01*
G01X5365260Y762000D02*
Y842000D01*
G01Y828000D02*
X5370590Y836000D01*
X5378590Y840000D01*
X5387930Y842000D01*
X5397260Y838000D01*
X5405260Y830000D01*
X5410590Y818000D01*
X5413260Y802000D01*
X5410590Y786000D01*
X5405260Y774000D01*
X5397260Y766000D01*
X5387930Y762000D01*
X5378590Y764000D01*
X5370590Y770000D01*
X5365260Y778000D01*
G01X5249190Y762000D02*
Y842000D01*
G01Y826000D02*
X5242520Y834000D01*
X5235850Y840000D01*
X5226520Y842000D01*
X5219850Y840000D01*
X5211850Y834000D01*
G01X5094450Y762000D02*
Y882000D01*
G01X5051780Y842000D02*
X5094450Y796000D01*
G01X5077110Y814000D02*
X5049110Y762000D01*
G01X4776970D02*
Y882000D01*
G01Y824000D02*
X4770300Y834000D01*
X4763630Y840000D01*
X4752970Y842000D01*
X4744970Y840000D01*
X4735630Y832000D01*
X4731630Y820000D01*
Y762000D01*
G01X4595560D02*
X4603560Y764000D01*
X4611560Y772000D01*
X4616890Y786000D01*
X4619560Y802000D01*
X4616890Y818000D01*
X4611560Y832000D01*
X4603560Y840000D01*
X4595560Y842000D01*
X4587560Y840000D01*
X4579560Y832000D01*
X4574230Y818000D01*
X4572890Y802000D01*
X4574230Y786000D01*
X4579560Y772000D01*
X4587560Y764000D01*
X4595560Y762000D01*
G01X4445890Y660200D02*
X4437890Y666200D01*
X4428560Y670200D01*
X4417890D01*
X4405890Y664200D01*
X4396560Y654200D01*
X4389890Y642200D01*
X4384560Y622200D01*
X4383230Y604200D01*
X4385890Y586200D01*
X4389890Y574200D01*
X4397890Y562200D01*
X4407230Y554200D01*
X4416560Y550200D01*
X4425890D01*
X4435230Y554200D01*
X4443230Y560200D01*
X4449890Y568200D01*
G01X4549970Y650200D02*
X4557970Y662200D01*
X4567300Y668200D01*
X4577970Y670200D01*
X4591300Y666200D01*
X4600630Y656200D01*
X4603300Y644200D01*
X4601970Y632200D01*
X4596630Y622200D01*
X4569970Y602200D01*
X4557970Y588200D01*
X4549970Y568200D01*
X4547300Y550200D01*
X4603300D01*
G01X4207160Y2172740D02*
X4239160D01*
G01X4223160D02*
Y2052740D01*
G01X4207160D02*
X4239160D01*
G01X4411230Y2162740D02*
X4403230Y2168740D01*
X4393900Y2172740D01*
X4383230D01*
X4371230Y2166740D01*
X4361900Y2156740D01*
X4355230Y2144740D01*
X4349900Y2124740D01*
X4348570Y2106740D01*
X4351230Y2088740D01*
X4355230Y2076740D01*
X4363230Y2064740D01*
X4372570Y2056740D01*
X4381900Y2052740D01*
X4391230D01*
X4400570Y2056740D01*
X4408570Y2062740D01*
X4415230Y2070740D01*
G01X4540640Y2052740D02*
Y2172740D01*
X4524640Y2148740D01*
G01Y2052740D02*
X4556640D01*
G01X4604160Y3016270D02*
X4596160Y3022270D01*
X4586830Y3026270D01*
X4576160D01*
X4564160Y3020270D01*
X4554830Y3010270D01*
X4548160Y2998270D01*
X4542830Y2978270D01*
X4541500Y2960270D01*
X4544160Y2942270D01*
X4548160Y2930270D01*
X4556160Y2918270D01*
X4565500Y2910270D01*
X4574830Y2906270D01*
X4584160D01*
X4593500Y2910270D01*
X4601500Y2916270D01*
X4608160Y2924270D01*
G01X4749570Y2906270D02*
Y3026270D01*
X4700240Y2940270D01*
X4766900D01*
G01X4446730Y4037000D02*
Y4157000D01*
X4480070D01*
X4490730Y4151000D01*
X4497400Y4143000D01*
X4500070Y4127000D01*
X4497400Y4111000D01*
X4489400Y4101000D01*
X4480070Y4095000D01*
X4446730D01*
G01X4480070D02*
X4500070Y4037000D01*
G01X4629470D02*
X4632140Y4063000D01*
X4636140Y4085000D01*
X4641470Y4105000D01*
X4648140Y4127000D01*
X4658810Y4157000D01*
X4605470D01*
G01X5455760Y2279930D02*
X5447760Y2285930D01*
X5438430Y2289930D01*
X5427760D01*
X5415760Y2283930D01*
X5406430Y2273930D01*
X5399760Y2261930D01*
X5394430Y2241930D01*
X5393100Y2223930D01*
X5395760Y2205930D01*
X5399760Y2193930D01*
X5407760Y2181930D01*
X5417100Y2173930D01*
X5426430Y2169930D01*
X5435760D01*
X5445100Y2173930D01*
X5453100Y2179930D01*
X5459760Y2187930D01*
G01X5585170Y2169930D02*
Y2289930D01*
X5569170Y2265930D01*
G01Y2169930D02*
X5601170D01*
G01X6263190Y455000D02*
Y575000D01*
X6296530D01*
X6307190Y569000D01*
X6313860Y561000D01*
X6316530Y545000D01*
X6313860Y529000D01*
X6305860Y519000D01*
X6296530Y513000D01*
X6263190D01*
G01X6296530D02*
X6316530Y455000D01*
G01X6419270Y473000D02*
X6427270Y463000D01*
X6436600Y457000D01*
X6448600Y455000D01*
X6460600Y459000D01*
X6469930Y467000D01*
X6476600Y481000D01*
X6477930Y497000D01*
X6475270Y513000D01*
X6468600Y523000D01*
X6459270Y531000D01*
X6449930Y533000D01*
X6440600Y531000D01*
X6428600Y523000D01*
X6432600Y575000D01*
X6468600D01*
G01X6263190Y963000D02*
Y1083000D01*
X6296530D01*
X6307190Y1077000D01*
X6313860Y1069000D01*
X6316530Y1053000D01*
X6313860Y1037000D01*
X6305860Y1027000D01*
X6296530Y1021000D01*
X6263190D01*
G01X6296530D02*
X6316530Y963000D01*
G01X6423270Y1013000D02*
X6432600Y1027000D01*
X6440600Y1035000D01*
X6451270Y1039000D01*
X6460600Y1035000D01*
X6467270Y1027000D01*
X6472600Y1015000D01*
X6473930Y1001000D01*
X6472600Y989000D01*
X6467270Y977000D01*
X6459270Y967000D01*
X6449930Y963000D01*
X6439270Y967000D01*
X6429930Y979000D01*
X6424600Y997000D01*
X6423270Y1017000D01*
X6425930Y1043000D01*
X6429930Y1057000D01*
X6436600Y1071000D01*
X6445930Y1081000D01*
X6455270Y1083000D01*
X6464600Y1079000D01*
X6471270Y1069000D01*
G01X6224730Y2005000D02*
Y2125000D01*
X6258070D01*
X6268730Y2119000D01*
X6275400Y2111000D01*
X6278070Y2095000D01*
X6275400Y2079000D01*
X6267400Y2069000D01*
X6258070Y2063000D01*
X6224730D01*
G01X6258070D02*
X6278070Y2005000D01*
G01X6410140D02*
Y2125000D01*
X6394140Y2101000D01*
G01Y2005000D02*
X6426140D01*
G01X6224730Y2513000D02*
Y2633000D01*
X6258070D01*
X6268730Y2627000D01*
X6275400Y2619000D01*
X6278070Y2603000D01*
X6275400Y2587000D01*
X6267400Y2577000D01*
X6258070Y2571000D01*
X6224730D01*
G01X6258070D02*
X6278070Y2513000D01*
G01X6410140D02*
Y2633000D01*
X6394140Y2609000D01*
G01Y2513000D02*
X6426140D01*
G01X6568880D02*
Y2633000D01*
X6552880Y2609000D01*
G01Y2513000D02*
X6584880D01*
G01X6135830Y3262300D02*
Y3382300D01*
X6169170D01*
X6179830Y3376300D01*
X6186500Y3368300D01*
X6189170Y3352300D01*
X6186500Y3336300D01*
X6178500Y3326300D01*
X6169170Y3320300D01*
X6135830D01*
G01X6169170D02*
X6189170Y3262300D01*
G01X6321240D02*
Y3382300D01*
X6305240Y3358300D01*
G01Y3262300D02*
X6337240D01*
G01X6450650Y3286300D02*
X6458650Y3272300D01*
X6469310Y3264300D01*
X6481310Y3262300D01*
X6491980Y3264300D01*
X6502650Y3274300D01*
X6509310Y3286300D01*
X6510650Y3298300D01*
X6507980Y3312300D01*
X6498650Y3322300D01*
X6489310Y3326300D01*
X6477310D01*
G01X6489310D02*
X6497310Y3332300D01*
X6503980Y3342300D01*
X6506650Y3354300D01*
X6503980Y3366300D01*
X6497310Y3376300D01*
X6485310Y3382300D01*
X6473310Y3380300D01*
X6461310Y3372300D01*
G01X6224730Y3021000D02*
Y3141000D01*
X6258070D01*
X6268730Y3135000D01*
X6275400Y3127000D01*
X6278070Y3111000D01*
X6275400Y3095000D01*
X6267400Y3085000D01*
X6258070Y3079000D01*
X6224730D01*
G01X6258070D02*
X6278070Y3021000D01*
G01X6410140D02*
Y3141000D01*
X6394140Y3117000D01*
G01Y3021000D02*
X6426140D01*
G01X6543550Y3121000D02*
X6551550Y3133000D01*
X6560880Y3139000D01*
X6571550Y3141000D01*
X6584880Y3137000D01*
X6594210Y3127000D01*
X6596880Y3115000D01*
X6595550Y3103000D01*
X6590210Y3093000D01*
X6563550Y3073000D01*
X6551550Y3059000D01*
X6543550Y3039000D01*
X6540880Y3021000D01*
X6596880D01*
G01X6193350Y3503000D02*
Y3623000D01*
X6226690D01*
X6237350Y3617000D01*
X6244020Y3609000D01*
X6246690Y3593000D01*
X6244020Y3577000D01*
X6236020Y3567000D01*
X6226690Y3561000D01*
X6193350D01*
G01X6226690D02*
X6246690Y3503000D01*
G01X6378760D02*
Y3623000D01*
X6362760Y3599000D01*
G01Y3503000D02*
X6394760D01*
G01X6508170Y3521000D02*
X6516170Y3511000D01*
X6525500Y3505000D01*
X6537500Y3503000D01*
X6549500Y3507000D01*
X6558830Y3515000D01*
X6565500Y3529000D01*
X6566830Y3545000D01*
X6564170Y3561000D01*
X6557500Y3571000D01*
X6548170Y3579000D01*
X6538830Y3581000D01*
X6529500Y3579000D01*
X6517500Y3571000D01*
X6521500Y3623000D01*
X6557500D01*
G01X7581570Y2365600D02*
Y2279600D01*
X7586900Y2261600D01*
X7597570Y2249600D01*
X7610900Y2245600D01*
X7624230Y2249600D01*
X7634900Y2261600D01*
X7640230Y2279600D01*
Y2365600D01*
G01X7769640Y2245600D02*
Y2365600D01*
X7753640Y2341600D01*
G01Y2245600D02*
X7785640D01*
G01X7276130Y3489700D02*
X7282800Y3477700D01*
X7290800Y3469700D01*
X7300130Y3465700D01*
X7310800Y3469700D01*
X7318800Y3477700D01*
X7326800Y3489700D01*
X7329470Y3505700D01*
Y3585700D01*
G01X7432210Y3489700D02*
X7440210Y3475700D01*
X7450870Y3467700D01*
X7462870Y3465700D01*
X7473540Y3467700D01*
X7484210Y3477700D01*
X7490870Y3489700D01*
X7492210Y3501700D01*
X7489540Y3515700D01*
X7480210Y3525700D01*
X7470870Y3529700D01*
X7458870D01*
G01X7470870D02*
X7478870Y3535700D01*
X7485540Y3545700D01*
X7488210Y3557700D01*
X7485540Y3569700D01*
X7478870Y3579700D01*
X7466870Y3585700D01*
X7454870Y3583700D01*
X7442870Y3575700D01*
G01X8295190Y455000D02*
Y575000D01*
X8328530D01*
X8339190Y569000D01*
X8345860Y561000D01*
X8348530Y545000D01*
X8345860Y529000D01*
X8337860Y519000D01*
X8328530Y513000D01*
X8295190D01*
G01X8328530D02*
X8348530Y455000D01*
G01X8480600D02*
X8489930Y457000D01*
X8500600Y463000D01*
X8507270Y473000D01*
X8509930Y487000D01*
X8507270Y501000D01*
X8499270Y513000D01*
X8487270Y519000D01*
X8473930D01*
X8465930Y523000D01*
X8459270Y533000D01*
X8456600Y547000D01*
X8460600Y561000D01*
X8469930Y571000D01*
X8480600Y575000D01*
X8491270Y571000D01*
X8500600Y561000D01*
X8504600Y547000D01*
X8501930Y533000D01*
X8495270Y523000D01*
X8487270Y519000D01*
X8473930D01*
X8461930Y513000D01*
X8453930Y501000D01*
X8451270Y487000D01*
X8453930Y473000D01*
X8460600Y463000D01*
X8471270Y457000D01*
X8480600Y455000D01*
G01X8295190Y963000D02*
Y1083000D01*
X8328530D01*
X8339190Y1077000D01*
X8345860Y1069000D01*
X8348530Y1053000D01*
X8345860Y1037000D01*
X8337860Y1027000D01*
X8328530Y1021000D01*
X8295190D01*
G01X8328530D02*
X8348530Y963000D01*
G01X8457930Y977000D02*
X8467270Y967000D01*
X8477930Y963000D01*
X8488600Y967000D01*
X8497930Y979000D01*
X8504600Y997000D01*
X8507270Y1015000D01*
Y1037000D01*
X8504600Y1055000D01*
X8497930Y1071000D01*
X8489930Y1079000D01*
X8480600Y1083000D01*
X8469930Y1079000D01*
X8461930Y1071000D01*
X8456600Y1059000D01*
X8453930Y1043000D01*
X8456600Y1029000D01*
X8463270Y1015000D01*
X8471270Y1007000D01*
X8480600Y1005000D01*
X8491270Y1009000D01*
X8499270Y1019000D01*
X8507270Y1037000D01*
G01X8521130Y3255300D02*
Y3375300D01*
X8547790D01*
X8558460Y3369300D01*
X8566460Y3361300D01*
X8573130Y3349300D01*
X8578460Y3335300D01*
X8579790Y3315300D01*
X8578460Y3295300D01*
X8573130Y3281300D01*
X8566460Y3269300D01*
X8558460Y3261300D01*
X8547790Y3255300D01*
X8521130D01*
G01X8709200D02*
Y3375300D01*
X8693200Y3351300D01*
G01Y3255300D02*
X8725200D01*
G01X9534830Y2677930D02*
Y2731930D01*
X9508160Y2797930D01*
G01X9561500D02*
X9534830Y2731930D01*
G01X9693570Y2677930D02*
Y2797930D01*
X9677570Y2773930D01*
G01Y2677930D02*
X9709570D01*
G01X9780730Y4037000D02*
Y4157000D01*
X9814070D01*
X9824730Y4151000D01*
X9831400Y4143000D01*
X9834070Y4127000D01*
X9831400Y4111000D01*
X9823400Y4101000D01*
X9814070Y4095000D01*
X9780730D01*
G01X9814070D02*
X9834070Y4037000D01*
G01X9966140D02*
Y4157000D01*
X9950140Y4133000D01*
G01Y4037000D02*
X9982140D01*
G01X10124880Y4157000D02*
X10114210Y4153000D01*
X10106210Y4143000D01*
X10100880Y4131000D01*
X10096880Y4115000D01*
X10095550Y4097000D01*
X10096880Y4079000D01*
X10100880Y4063000D01*
X10106210Y4051000D01*
X10114210Y4041000D01*
X10124880Y4037000D01*
X10135550Y4041000D01*
X10143550Y4051000D01*
X10148880Y4063000D01*
X10152880Y4079000D01*
X10154210Y4097000D01*
X10152880Y4115000D01*
X10148880Y4131000D01*
X10143550Y4143000D01*
X10135550Y4153000D01*
X10124880Y4157000D01*
G01X10357960Y2533930D02*
X10349960Y2539930D01*
X10340630Y2543930D01*
X10329960D01*
X10317960Y2537930D01*
X10308630Y2527930D01*
X10301960Y2515930D01*
X10296630Y2495930D01*
X10295300Y2477930D01*
X10297960Y2459930D01*
X10301960Y2447930D01*
X10309960Y2435930D01*
X10319300Y2427930D01*
X10328630Y2423930D01*
X10337960D01*
X10347300Y2427930D01*
X10355300Y2433930D01*
X10361960Y2441930D01*
G01X10484700Y2423930D02*
X10487370Y2449930D01*
X10491370Y2471930D01*
X10496700Y2491930D01*
X10503370Y2513930D01*
X10514040Y2543930D01*
X10460700D01*
G01X10446860Y3473730D02*
X10438860Y3479730D01*
X10429530Y3483730D01*
X10418860D01*
X10406860Y3477730D01*
X10397530Y3467730D01*
X10390860Y3455730D01*
X10385530Y3435730D01*
X10384200Y3417730D01*
X10386860Y3399730D01*
X10390860Y3387730D01*
X10398860Y3375730D01*
X10408200Y3367730D01*
X10417530Y3363730D01*
X10426860D01*
X10436200Y3367730D01*
X10444200Y3373730D01*
X10450860Y3381730D01*
G01X10576270Y3363730D02*
X10585600Y3365730D01*
X10596270Y3371730D01*
X10602940Y3381730D01*
X10605600Y3395730D01*
X10602940Y3409730D01*
X10594940Y3421730D01*
X10582940Y3427730D01*
X10569600D01*
X10561600Y3431730D01*
X10554940Y3441730D01*
X10552270Y3455730D01*
X10556270Y3469730D01*
X10565600Y3479730D01*
X10576270Y3483730D01*
X10586940Y3479730D01*
X10596270Y3469730D01*
X10600270Y3455730D01*
X10597600Y3441730D01*
X10590940Y3431730D01*
X10582940Y3427730D01*
X10569600D01*
X10557600Y3421730D01*
X10549600Y3409730D01*
X10546940Y3395730D01*
X10549600Y3381730D01*
X10556270Y3371730D01*
X10566940Y3365730D01*
X10576270Y3363730D01*
G54D11*
G01X889000Y476300D02*
G03X1174700Y762000I0J285700D01*
G01X603300D02*
G03X889000Y476300I285700J0D01*
G01Y1047700D02*
G03X603300Y762000I0J-285700D01*
G01X1174700D02*
G03X889000Y1047700I-285700J0D01*
G01X762000Y1365300D02*
G03X1047700Y1651000I0J285700D01*
G01X476300D02*
G03X762000Y1365300I285700J0D01*
G01Y1936700D02*
G03X476300Y1651000I0J-285700D01*
G01X1047700D02*
G03X762000Y1936700I-285700J0D01*
G01X635000Y2146300D02*
X381000D01*
G01X635000Y3441700D02*
Y2146300D01*
G01X381000Y2540000D02*
Y2794000D01*
G01Y2286000D02*
Y2540000D01*
G01Y2146300D02*
Y2286000D01*
G01Y3302000D02*
Y3441700D01*
G01Y3048000D02*
Y3302000D01*
G01Y2794000D02*
Y3048000D01*
G01X622300Y3683000D02*
Y3937000D01*
G01X1917700Y3683000D02*
X622300D01*
G01X1016000Y3937000D02*
X1270000D01*
G01X762000D02*
X1016000D01*
G01X622300D02*
X762000D01*
G01X381000Y3441700D02*
X635000D01*
G01X1619300Y762000D02*
G03X1905000Y476300I285700J0D01*
G01Y1047700D02*
G03X1619300Y762000I0J-285700D01*
G01X1460500Y1778000D02*
X1397000D01*
G01X2095500Y1651000D02*
X1460500D01*
G01D02*
Y1778000D01*
G01D02*
Y1905000D01*
G01D02*
X2095500D01*
G01X1460500Y2286000D02*
X1397000D01*
G01X2095500Y2159000D02*
X1460500D01*
G01D02*
Y2286000D01*
G01D02*
Y2413000D01*
G01D02*
X2095500D01*
G01X1460500Y3302000D02*
X1397000D01*
G01X2095500Y3175000D02*
X1460500D01*
G01D02*
Y3302000D01*
G01D02*
Y3429000D01*
G01Y2794000D02*
X1397000D01*
G01X2095500Y2667000D02*
X1460500D01*
G01D02*
Y2794000D01*
G01D02*
Y2921000D01*
G01D02*
X2095500D01*
G01X1778000Y3937000D02*
X1917700D01*
G01X1524000D02*
X1778000D01*
G01X1270000D02*
X1524000D01*
G01X1460500Y3429000D02*
X2095500D01*
G01X1905000Y476300D02*
G03X2190700Y762000I0J285700D01*
G01D02*
G03X1905000Y1047700I-285700J0D01*
G01X2095500Y1778000D02*
X2159000D01*
G01X2095500Y1905000D02*
Y1778000D01*
G01D02*
Y1651000D01*
G01Y2286000D02*
X2159000D01*
G01X2095500Y2413000D02*
Y2286000D01*
G01D02*
Y2159000D01*
G01Y3302000D02*
X2159000D01*
G01X2095500Y3429000D02*
Y3302000D01*
G01D02*
Y3175000D01*
G01Y2794000D02*
X2159000D01*
G01X2095500Y2921000D02*
Y2794000D01*
G01D02*
Y2667000D01*
G01X1917700Y3937000D02*
Y3683000D01*
G01X2921000Y476300D02*
G03X3206700Y762000I0J285700D01*
G01X2635300D02*
G03X2921000Y476300I285700J0D01*
G01Y1047700D02*
G03X2635300Y762000I0J-285700D01*
G01X3206700D02*
G03X2921000Y1047700I-285700J0D01*
G01X4508500Y1524000D02*
X3365500D01*
G01D02*
Y2032000D01*
G01D02*
X4508500D01*
G01X3683000Y730300D02*
G03X3968700Y1016000I0J285700D01*
G01X3397300D02*
G03X3683000Y730300I285700J0D01*
G01Y1301700D02*
G03X3397300Y1016000I0J-285700D01*
G01X3968700D02*
G03X3683000Y1301700I-285700J0D01*
G01X4445000Y730300D02*
G03X4730700Y1016000I0J285700D01*
G01X4159300D02*
G03X4445000Y730300I285700J0D01*
G01Y1301700D02*
G03X4159300Y1016000I0J-285700D01*
G01X4730700D02*
G03X4445000Y1301700I-285700J0D01*
G01X4508500Y2032000D02*
Y1524000D01*
G01X4794300Y2159000D02*
G03X5080000Y1873300I285700J0D01*
G01Y2444700D02*
G03X4794300Y2159000I0J-285700D01*
G01Y3175000D02*
G03X5080000Y2889300I285700J0D01*
G01Y3460700D02*
G03X4794300Y3175000I0J-285700D01*
G01X4254500Y3810000D02*
X4191000D01*
G01X4889500D02*
X4953000D01*
G01X4254500Y3683000D02*
Y3810000D01*
G01D02*
Y3937000D01*
G01D02*
X4889500D01*
G01D02*
Y3810000D01*
G01D02*
Y3683000D01*
G01D02*
X4254500D01*
G01X5080000Y1873300D02*
G03X5365700Y2159000I0J285700D01*
G01D02*
G03X5080000Y2444700I-285700J0D01*
G01Y2889300D02*
G03X5365700Y3175000I0J285700D01*
G01D02*
G03X5080000Y3460700I-285700J0D01*
G01X6032500Y762000D02*
X5969000D01*
G01X6667500Y635000D02*
X6032500D01*
G01D02*
Y762000D01*
G01D02*
Y889000D01*
G01D02*
X6667500D01*
G01X6032500Y1778000D02*
X5969000D01*
G01X6032500Y1651000D02*
Y1778000D01*
G01D02*
Y1905000D01*
G01X6667500Y1651000D02*
X6032500D01*
G01Y1270000D02*
X5969000D01*
G01X6667500Y1143000D02*
X6032500D01*
G01D02*
Y1270000D01*
G01D02*
Y1397000D01*
G01D02*
X6667500D01*
G01X6032500Y1905000D02*
X6667500D01*
G01X6032500Y2286000D02*
X5969000D01*
G01X6032500Y2159000D02*
Y2286000D01*
G01D02*
Y2413000D01*
G01D02*
X6667500D01*
G01Y2159000D02*
X6032500D01*
G01Y3302000D02*
X5969000D01*
G01X6032500Y3175000D02*
Y3302000D01*
G01D02*
Y3429000D01*
G01X6667500Y3175000D02*
X6032500D01*
G01Y2794000D02*
X5969000D01*
G01X6032500Y2667000D02*
Y2794000D01*
G01D02*
Y2921000D01*
G01D02*
X6667500D01*
G01Y2667000D02*
X6032500D01*
G01Y3429000D02*
X6667500D01*
G01X6032500Y3810000D02*
X5969000D01*
G01X6667500Y3683000D02*
X6032500D01*
G01D02*
Y3810000D01*
G01D02*
Y3937000D01*
G01D02*
X6667500D01*
G01Y762000D02*
X6731000D01*
G01X6667500Y889000D02*
Y762000D01*
G01D02*
Y635000D01*
G01Y1778000D02*
X6731000D01*
G01X6667500Y1905000D02*
Y1778000D01*
G01D02*
Y1651000D01*
G01Y1270000D02*
X6731000D01*
G01X6667500Y1397000D02*
Y1270000D01*
G01D02*
Y1143000D01*
G01Y2286000D02*
X6731000D01*
G01X6667500Y2413000D02*
Y2286000D01*
G01D02*
Y2159000D01*
G01Y3302000D02*
X6731000D01*
G01X6667500Y3429000D02*
Y3302000D01*
G01D02*
Y3175000D01*
G01Y2794000D02*
X6731000D01*
G01X6667500Y2921000D02*
Y2794000D01*
G01D02*
Y2667000D01*
G01Y3810000D02*
X6731000D01*
G01X6667500Y3937000D02*
Y3810000D01*
G01D02*
Y3683000D01*
G01X7493000Y2146300D02*
X7239000D01*
G01X7493000Y3441700D02*
Y2146300D01*
G01X7239000Y2540000D02*
Y2794000D01*
G01Y2286000D02*
Y2540000D01*
G01Y2146300D02*
Y2286000D01*
G01Y3302000D02*
Y3441700D01*
G01Y3048000D02*
Y3302000D01*
G01Y2794000D02*
Y3048000D01*
G01Y3441700D02*
X7493000D01*
G01X8699500Y762000D02*
X8763000D01*
G01X8064500D02*
X8001000D01*
G01X8699500Y889000D02*
Y762000D01*
G01D02*
Y635000D01*
G01D02*
X8064500D01*
G01D02*
Y762000D01*
G01D02*
Y889000D01*
G01D02*
X8699500D01*
G01Y1270000D02*
X8763000D01*
G01X8064500D02*
X8001000D01*
G01X8699500Y1397000D02*
Y1270000D01*
G01D02*
Y1143000D01*
G01D02*
X8064500D01*
G01D02*
Y1270000D01*
G01D02*
Y1397000D01*
G01D02*
X8699500D01*
G01X8731300Y4127500D02*
G03Y3492500I0J-317500D01*
G01X9144000Y2095500D02*
Y3238500D01*
G01X9652000Y2095500D02*
X9144000D01*
G01Y3238500D02*
X9484350D01*
G01X9048700Y3810000D02*
G03X8731300Y4127500I-317400J100D01*
G01Y3492500D02*
G03X9048700Y3810000I0J317400D01*
G01X10160000Y2127300D02*
G03X10445700Y2413000I0J285700D01*
G01X9874300D02*
G03X10160000Y2127300I285700J0D01*
G01Y2698700D02*
G03X9874300Y2413000I0J-285700D01*
G01X9652000Y3238500D02*
Y2095500D01*
G01X10445700Y2413000D02*
G03X10160000Y2698700I-285700J0D01*
G01Y2889300D02*
G03X10445700Y3175000I0J285700D01*
G01X9874300D02*
G03X10160000Y2889300I285700J0D01*
G01Y3460700D02*
G03X9874300Y3175000I0J-285700D01*
G01X9565650Y3238500D02*
X9652000D01*
G01X10445700Y3175000D02*
G03X10160000Y3460700I-285700J0D01*
G01X9588500Y3810000D02*
X9525000D01*
G01X10223500D02*
X10287000D01*
G01X9588500Y3683000D02*
Y3810000D01*
G01D02*
Y3937000D01*
G01D02*
X10223500D01*
G01D02*
Y3810000D01*
G01D02*
Y3683000D01*
G01D02*
X9588500D01*
G54D12*
G01X4448800Y2470700D02*
X4306100D01*
G01X8058700Y2218700D02*
Y2361400D01*
M02*
