G04 ================== begin FILE IDENTIFICATION RECORD ==================*
G04 Layout Name:  C:/Users/user/Desktop/work/avrUSB500/allegro/AVRUSB500kkk1111.brd*
G04 Film Name:    DrilDraw*
G04 File Format:  Gerber RS274X*
G04 File Origin:  Cadence Allegro 16.6-S034*
G04 Origin Date:  Fri Jul 19 12:47:42 2019*
G04 *
G04 Layer:  MANUFACTURING/NCLEGEND-1-2*
G04 Layer:  BOARD GEOMETRY/OUTLINE*
G04 *
G04 Offset:    (0.0000 0.0000)*
G04 Mirror:    No*
G04 Mode:      Positive*
G04 Rotation:  0*
G04 FullContactRelief:  No*
G04 UndefLineWidth:     0.0000*
G04 ================== end FILE IDENTIFICATION RECORD ====================*
%FSLAX55Y55*MOMM*%
%IR0*IPPOS*OFA0.00000B0.00000*MIA0B0*SFA1.00000B1.00000*%
%AMMACRO12*
1,1,0.0,-.25,-.45*
20,1,0.0,-.25,-.45,-.25,.45,0.0*
1,1,0.0,-.25,.45*
20,1,0.0,-.25,.45,-.246202,.493412,0.0*
1,1,0.0,-.246202,.493412*
20,1,0.0,-.246202,.493412,-.234923,.535505,0.0*
1,1,0.0,-.234923,.535505*
20,1,0.0,-.234923,.535505,-.216506,.575,0.0*
1,1,0.0,-.216506,.575*
20,1,0.0,-.216506,.575,-.191511,.610697,0.0*
1,1,0.0,-.191511,.610697*
20,1,0.0,-.191511,.610697,-.160697,.641511,0.0*
1,1,0.0,-.160697,.641511*
20,1,0.0,-.160697,.641511,-.125,.666506,0.0*
1,1,0.0,-.125,.666506*
20,1,0.0,-.125,.666506,-.085505,.684923,0.0*
1,1,0.0,-.085505,.684923*
20,1,0.0,-.085505,.684923,-.043412,.696202,0.0*
1,1,0.0,-.043412,.696202*
20,1,0.0,-.043412,.696202,0.0,.7,0.0*
1,1,0.0,0.0,.7*
20,1,0.0,0.0,.7,.043412,.696202,0.0*
1,1,0.0,.043412,.696202*
20,1,0.0,.043412,.696202,.085505,.684923,0.0*
1,1,0.0,.085505,.684923*
20,1,0.0,.085505,.684923,.125,.666506,0.0*
1,1,0.0,.125,.666506*
20,1,0.0,.125,.666506,.160697,.641511,0.0*
1,1,0.0,.160697,.641511*
20,1,0.0,.160697,.641511,.191511,.610697,0.0*
1,1,0.0,.191511,.610697*
20,1,0.0,.191511,.610697,.216506,.575,0.0*
1,1,0.0,.216506,.575*
20,1,0.0,.216506,.575,.234923,.535505,0.0*
1,1,0.0,.234923,.535505*
20,1,0.0,.234923,.535505,.246202,.493412,0.0*
1,1,0.0,.246202,.493412*
20,1,0.0,.246202,.493412,.25,.45,0.0*
1,1,0.0,.25,.45*
20,1,0.0,.25,.45,.25,-.45,0.0*
1,1,0.0,.25,-.45*
20,1,0.0,.25,-.45,.246202,-.493412,0.0*
1,1,0.0,.246202,-.493412*
20,1,0.0,.246202,-.493412,.234923,-.535505,0.0*
1,1,0.0,.234923,-.535505*
20,1,0.0,.234923,-.535505,.216506,-.575,0.0*
1,1,0.0,.216506,-.575*
20,1,0.0,.216506,-.575,.191511,-.610697,0.0*
1,1,0.0,.191511,-.610697*
20,1,0.0,.191511,-.610697,.160697,-.641511,0.0*
1,1,0.0,.160697,-.641511*
20,1,0.0,.160697,-.641511,.125,-.666506,0.0*
1,1,0.0,.125,-.666506*
20,1,0.0,.125,-.666506,.085505,-.684923,0.0*
1,1,0.0,.085505,-.684923*
20,1,0.0,.085505,-.684923,.043412,-.696202,0.0*
1,1,0.0,.043412,-.696202*
20,1,0.0,.043412,-.696202,0.0,-.7,0.0*
1,1,0.0,0.0,-.7*
20,1,0.0,0.0,-.7,-.043412,-.696202,0.0*
1,1,0.0,-.043412,-.696202*
20,1,0.0,-.043412,-.696202,-.085505,-.684923,0.0*
1,1,0.0,-.085505,-.684923*
20,1,0.0,-.085505,-.684923,-.125,-.666506,0.0*
1,1,0.0,-.125,-.666506*
20,1,0.0,-.125,-.666506,-.160697,-.641511,0.0*
1,1,0.0,-.160697,-.641511*
20,1,0.0,-.160697,-.641511,-.191511,-.610697,0.0*
1,1,0.0,-.191511,-.610697*
20,1,0.0,-.191511,-.610697,-.216506,-.575,0.0*
1,1,0.0,-.216506,-.575*
20,1,0.0,-.216506,-.575,-.234923,-.535505,0.0*
1,1,0.0,-.234923,-.535505*
20,1,0.0,-.234923,-.535505,-.246202,-.493412,0.0*
1,1,0.0,-.246202,-.493412*
20,1,0.0,-.246202,-.493412,-.25,-.45,0.0*
1,1,0.0,-.25,-.45*
%
%ADD12MACRO12*%
%AMMACRO13*
1,1,0.0,.635,0.0*
20,1,0.0,.635,0.0,.625353,-.110267,0.0*
1,1,0.0,.625353,-.110267*
20,1,0.0,.625353,-.110267,.596705,-.217183,0.0*
1,1,0.0,.596705,-.217183*
20,1,0.0,.596705,-.217183,.549926,-.3175,0.0*
1,1,0.0,.549926,-.3175*
20,1,0.0,.549926,-.3175,.486438,-.40817,0.0*
1,1,0.0,.486438,-.40817*
20,1,0.0,.486438,-.40817,.40817,-.486438,0.0*
1,1,0.0,.40817,-.486438*
20,1,0.0,.40817,-.486438,.3175,-.549926,0.0*
1,1,0.0,.3175,-.549926*
20,1,0.0,.3175,-.549926,.217183,-.596705,0.0*
1,1,0.0,.217183,-.596705*
20,1,0.0,.217183,-.596705,.110267,-.625353,0.0*
1,1,0.0,.110267,-.625353*
20,1,0.0,.110267,-.625353,0.0,-.635,0.0*
1,1,0.0,0.0,-.635*
20,1,0.0,0.0,-.635,-.110267,-.625353,0.0*
1,1,0.0,-.110267,-.625353*
20,1,0.0,-.110267,-.625353,-.217183,-.596705,0.0*
1,1,0.0,-.217183,-.596705*
20,1,0.0,-.217183,-.596705,-.3175,-.549926,0.0*
1,1,0.0,-.3175,-.549926*
20,1,0.0,-.3175,-.549926,-.40817,-.486438,0.0*
1,1,0.0,-.40817,-.486438*
20,1,0.0,-.40817,-.486438,-.486438,-.40817,0.0*
1,1,0.0,-.486438,-.40817*
20,1,0.0,-.486438,-.40817,-.549926,-.3175,0.0*
1,1,0.0,-.549926,-.3175*
20,1,0.0,-.549926,-.3175,-.596705,-.217183,0.0*
1,1,0.0,-.596705,-.217183*
20,1,0.0,-.596705,-.217183,-.625353,-.110267,0.0*
1,1,0.0,-.625353,-.110267*
20,1,0.0,-.625353,-.110267,-.635,0.0,0.0*
1,1,0.0,-.635,0.0*
20,1,0.0,-.635,0.0,-.625353,.110267,0.0*
1,1,0.0,-.625353,.110267*
20,1,0.0,-.625353,.110267,-.596705,.217183,0.0*
1,1,0.0,-.596705,.217183*
20,1,0.0,-.596705,.217183,-.549926,.3175,0.0*
1,1,0.0,-.549926,.3175*
20,1,0.0,-.549926,.3175,-.486438,.40817,0.0*
1,1,0.0,-.486438,.40817*
20,1,0.0,-.486438,.40817,-.40817,.486438,0.0*
1,1,0.0,-.40817,.486438*
20,1,0.0,-.40817,.486438,-.3175,.549926,0.0*
1,1,0.0,-.3175,.549926*
20,1,0.0,-.3175,.549926,-.217183,.596705,0.0*
1,1,0.0,-.217183,.596705*
20,1,0.0,-.217183,.596705,-.110267,.625353,0.0*
1,1,0.0,-.110267,.625353*
20,1,0.0,-.110267,.625353,0.0,.635,0.0*
1,1,0.0,0.0,.635*
20,1,0.0,0.0,.635,.110267,.625353,0.0*
1,1,0.0,.110267,.625353*
20,1,0.0,.110267,.625353,.217183,.596705,0.0*
1,1,0.0,.217183,.596705*
20,1,0.0,.217183,.596705,.3175,.549926,0.0*
1,1,0.0,.3175,.549926*
20,1,0.0,.3175,.549926,.40817,.486438,0.0*
1,1,0.0,.40817,.486438*
20,1,0.0,.40817,.486438,.486438,.40817,0.0*
1,1,0.0,.486438,.40817*
20,1,0.0,.486438,.40817,.549926,.3175,0.0*
1,1,0.0,.549926,.3175*
20,1,0.0,.549926,.3175,.596705,.217183,0.0*
1,1,0.0,.596705,.217183*
20,1,0.0,.596705,.217183,.625353,.110267,0.0*
1,1,0.0,.625353,.110267*
20,1,0.0,.625353,.110267,.635,0.0,0.0*
1,1,0.0,.635,0.0*
1,1,0.0,.3175,0.0*
20,1,0.0,.3175,0.0,-.3175,0.0,0.0*
1,1,0.0,-.3175,0.0*
1,1,0.0,0.0,.3175*
20,1,0.0,0.0,.3175,0.0,-.3175,0.0*
1,1,0.0,0.0,-.3175*
%
%ADD13MACRO13*%
%AMMACRO11*
1,1,0.0,.533,0.0*
20,1,0.0,.533,0.0,.524903,-.092554,0.0*
1,1,0.0,.524903,-.092554*
20,1,0.0,.524903,-.092554,.500856,-.182297,0.0*
1,1,0.0,.500856,-.182297*
20,1,0.0,.500856,-.182297,.461592,-.2665,0.0*
1,1,0.0,.461592,-.2665*
20,1,0.0,.461592,-.2665,.408302,-.342606,0.0*
1,1,0.0,.408302,-.342606*
20,1,0.0,.408302,-.342606,.342606,-.408302,0.0*
1,1,0.0,.342606,-.408302*
20,1,0.0,.342606,-.408302,.2665,-.461592,0.0*
1,1,0.0,.2665,-.461592*
20,1,0.0,.2665,-.461592,.182297,-.500856,0.0*
1,1,0.0,.182297,-.500856*
20,1,0.0,.182297,-.500856,.092554,-.524903,0.0*
1,1,0.0,.092554,-.524903*
20,1,0.0,.092554,-.524903,0.0,-.533,0.0*
1,1,0.0,0.0,-.533*
20,1,0.0,0.0,-.533,-.092554,-.524903,0.0*
1,1,0.0,-.092554,-.524903*
20,1,0.0,-.092554,-.524903,-.182297,-.500856,0.0*
1,1,0.0,-.182297,-.500856*
20,1,0.0,-.182297,-.500856,-.2665,-.461592,0.0*
1,1,0.0,-.2665,-.461592*
20,1,0.0,-.2665,-.461592,-.342606,-.408302,0.0*
1,1,0.0,-.342606,-.408302*
20,1,0.0,-.342606,-.408302,-.408302,-.342606,0.0*
1,1,0.0,-.408302,-.342606*
20,1,0.0,-.408302,-.342606,-.461592,-.2665,0.0*
1,1,0.0,-.461592,-.2665*
20,1,0.0,-.461592,-.2665,-.500856,-.182297,0.0*
1,1,0.0,-.500856,-.182297*
20,1,0.0,-.500856,-.182297,-.524903,-.092554,0.0*
1,1,0.0,-.524903,-.092554*
20,1,0.0,-.524903,-.092554,-.533,0.0,0.0*
1,1,0.0,-.533,0.0*
20,1,0.0,-.533,0.0,-.524903,.092554,0.0*
1,1,0.0,-.524903,.092554*
20,1,0.0,-.524903,.092554,-.500856,.182297,0.0*
1,1,0.0,-.500856,.182297*
20,1,0.0,-.500856,.182297,-.461592,.2665,0.0*
1,1,0.0,-.461592,.2665*
20,1,0.0,-.461592,.2665,-.408302,.342606,0.0*
1,1,0.0,-.408302,.342606*
20,1,0.0,-.408302,.342606,-.342606,.408302,0.0*
1,1,0.0,-.342606,.408302*
20,1,0.0,-.342606,.408302,-.2665,.461592,0.0*
1,1,0.0,-.2665,.461592*
20,1,0.0,-.2665,.461592,-.182297,.500856,0.0*
1,1,0.0,-.182297,.500856*
20,1,0.0,-.182297,.500856,-.092554,.524903,0.0*
1,1,0.0,-.092554,.524903*
20,1,0.0,-.092554,.524903,0.0,.533,0.0*
1,1,0.0,0.0,.533*
20,1,0.0,0.0,.533,.092554,.524903,0.0*
1,1,0.0,.092554,.524903*
20,1,0.0,.092554,.524903,.182297,.500856,0.0*
1,1,0.0,.182297,.500856*
20,1,0.0,.182297,.500856,.2665,.461592,0.0*
1,1,0.0,.2665,.461592*
20,1,0.0,.2665,.461592,.342606,.408302,0.0*
1,1,0.0,.342606,.408302*
20,1,0.0,.342606,.408302,.408302,.342606,0.0*
1,1,0.0,.408302,.342606*
20,1,0.0,.408302,.342606,.461592,.2665,0.0*
1,1,0.0,.461592,.2665*
20,1,0.0,.461592,.2665,.500856,.182297,0.0*
1,1,0.0,.500856,.182297*
20,1,0.0,.500856,.182297,.524903,.092554,0.0*
1,1,0.0,.524903,.092554*
20,1,0.0,.524903,.092554,.533,0.0,0.0*
1,1,0.0,.533,0.0*
1,1,0.0,-.2221,-.2665*
20,1,0.0,-.2221,-.2665,0.0,.2665,0.0*
1,1,0.0,0.0,.2665*
20,1,0.0,0.0,.2665,.2221,-.2665,0.0*
1,1,0.0,.2221,-.2665*
1,1,0.0,.1421,-.08*
20,1,0.0,.1421,-.08,-.1421,-.08,0.0*
1,1,0.0,-.1421,-.08*
%
%ADD11MACRO11*%
%AMMACRO10*
1,1,0.0,.3935,0.0*
20,1,0.0,.3935,0.0,.387522,-.068331,0.0*
1,1,0.0,.387522,-.068331*
20,1,0.0,.387522,-.068331,.369769,-.134585,0.0*
1,1,0.0,.369769,-.134585*
20,1,0.0,.369769,-.134585,.340781,-.19675,0.0*
1,1,0.0,.340781,-.19675*
20,1,0.0,.340781,-.19675,.301438,-.252937,0.0*
1,1,0.0,.301438,-.252937*
20,1,0.0,.301438,-.252937,.252937,-.301438,0.0*
1,1,0.0,.252937,-.301438*
20,1,0.0,.252937,-.301438,.19675,-.340781,0.0*
1,1,0.0,.19675,-.340781*
20,1,0.0,.19675,-.340781,.134585,-.369769,0.0*
1,1,0.0,.134585,-.369769*
20,1,0.0,.134585,-.369769,.068331,-.387522,0.0*
1,1,0.0,.068331,-.387522*
20,1,0.0,.068331,-.387522,0.0,-.3935,0.0*
1,1,0.0,0.0,-.3935*
20,1,0.0,0.0,-.3935,-.068331,-.387522,0.0*
1,1,0.0,-.068331,-.387522*
20,1,0.0,-.068331,-.387522,-.134585,-.369769,0.0*
1,1,0.0,-.134585,-.369769*
20,1,0.0,-.134585,-.369769,-.19675,-.340781,0.0*
1,1,0.0,-.19675,-.340781*
20,1,0.0,-.19675,-.340781,-.252937,-.301438,0.0*
1,1,0.0,-.252937,-.301438*
20,1,0.0,-.252937,-.301438,-.301438,-.252937,0.0*
1,1,0.0,-.301438,-.252937*
20,1,0.0,-.301438,-.252937,-.340781,-.19675,0.0*
1,1,0.0,-.340781,-.19675*
20,1,0.0,-.340781,-.19675,-.369769,-.134585,0.0*
1,1,0.0,-.369769,-.134585*
20,1,0.0,-.369769,-.134585,-.387522,-.068331,0.0*
1,1,0.0,-.387522,-.068331*
20,1,0.0,-.387522,-.068331,-.3935,0.0,0.0*
1,1,0.0,-.3935,0.0*
20,1,0.0,-.3935,0.0,-.387522,.068331,0.0*
1,1,0.0,-.387522,.068331*
20,1,0.0,-.387522,.068331,-.369769,.134585,0.0*
1,1,0.0,-.369769,.134585*
20,1,0.0,-.369769,.134585,-.340781,.19675,0.0*
1,1,0.0,-.340781,.19675*
20,1,0.0,-.340781,.19675,-.301438,.252937,0.0*
1,1,0.0,-.301438,.252937*
20,1,0.0,-.301438,.252937,-.252937,.301438,0.0*
1,1,0.0,-.252937,.301438*
20,1,0.0,-.252937,.301438,-.19675,.340781,0.0*
1,1,0.0,-.19675,.340781*
20,1,0.0,-.19675,.340781,-.134585,.369769,0.0*
1,1,0.0,-.134585,.369769*
20,1,0.0,-.134585,.369769,-.068331,.387522,0.0*
1,1,0.0,-.068331,.387522*
20,1,0.0,-.068331,.387522,0.0,.3935,0.0*
1,1,0.0,0.0,.3935*
20,1,0.0,0.0,.3935,.068331,.387522,0.0*
1,1,0.0,.068331,.387522*
20,1,0.0,.068331,.387522,.134585,.369769,0.0*
1,1,0.0,.134585,.369769*
20,1,0.0,.134585,.369769,.19675,.340781,0.0*
1,1,0.0,.19675,.340781*
20,1,0.0,.19675,.340781,.252937,.301438,0.0*
1,1,0.0,.252937,.301438*
20,1,0.0,.252937,.301438,.301438,.252937,0.0*
1,1,0.0,.301438,.252937*
20,1,0.0,.301438,.252937,.340781,.19675,0.0*
1,1,0.0,.340781,.19675*
20,1,0.0,.340781,.19675,.369769,.134585,0.0*
1,1,0.0,.369769,.134585*
20,1,0.0,.369769,.134585,.387522,.068331,0.0*
1,1,0.0,.387522,.068331*
20,1,0.0,.387522,.068331,.3935,0.0,0.0*
1,1,0.0,.3935,0.0*
1,1,0.0,-.1639,-.1967*
20,1,0.0,-.1639,-.1967,0.0,.1968,0.0*
1,1,0.0,0.0,.1968*
20,1,0.0,0.0,.1968,.164,-.1967,0.0*
1,1,0.0,.164,-.1967*
1,1,0.0,.105,-.059*
20,1,0.0,.105,-.059,-.1049,-.059,0.0*
1,1,0.0,-.1049,-.059*
%
%ADD10MACRO10*%
%LPD*%
G75*
G54D10*
X1016000Y762000D03*
X762000D03*
Y1524000D03*
Y1778000D03*
X965200Y6757910D03*
X1778000Y762000D03*
X1270000Y1778000D03*
Y2286000D03*
Y3302000D03*
Y2794000D03*
X2032000Y762000D03*
X2286000Y1778000D03*
Y2286000D03*
Y2794000D03*
Y3302000D03*
X3048000Y762000D03*
X2794000D03*
X3810000Y1016000D03*
X3556000D03*
Y1778000D03*
X4064000Y3810000D03*
X4572000Y1016000D03*
X4318000D03*
Y1778000D03*
X5080000Y2286000D03*
Y2032000D03*
Y3048000D03*
Y3302000D03*
Y3810000D03*
X5842000Y762000D03*
Y1270000D03*
Y1778000D03*
Y2286000D03*
Y2794000D03*
Y3302000D03*
Y3810000D03*
X6858000Y762000D03*
Y1270000D03*
Y1778000D03*
Y2286000D03*
Y2794000D03*
Y3302000D03*
Y3810000D03*
X7874000Y762000D03*
Y1270000D03*
X8572500Y3810000D03*
X8890000Y762000D03*
Y1270000D03*
X9398000Y2286000D03*
Y3048000D03*
X8890000Y3810000D03*
X9398000D03*
X10160000Y2540000D03*
Y2286000D03*
Y3302000D03*
Y3048000D03*
X10414000Y3810000D03*
G54D11*
X508000Y2286000D03*
Y2540000D03*
Y3048000D03*
Y3302000D03*
Y2794000D03*
X762000Y3810000D03*
X1016000D03*
X965200Y6044170D03*
X1270000Y3810000D03*
X1524000D03*
X1778000D03*
X7366000Y2286000D03*
Y2540000D03*
Y2794000D03*
Y3048000D03*
Y3302000D03*
G54D12*
X965200Y5330430D03*
X9457000Y698500D03*
Y1068500D03*
X10482000Y698500D03*
Y1068500D03*
G54D13*
X965200Y7471650D03*
X2413000Y1206500D03*
X2476500Y2794000D03*
Y3937000D03*
X2667000Y4064000D03*
X3238500Y381000D03*
X2921000Y1714500D03*
X3111500Y1333500D03*
X3302000Y2603500D03*
X3048000Y2222500D03*
X3302000Y3175000D03*
X2921000Y3302000D03*
X3365500Y3365500D03*
Y3937000D03*
X3810000Y1333500D03*
X3683000Y2603500D03*
X4191000Y2540000D03*
X3492500Y3178850D03*
X4127500Y2730500D03*
X3810000D03*
X4000500Y2984500D03*
X3746500Y3429000D03*
X3937000Y3683000D03*
X3492500Y3873500D03*
X4000500Y3492500D03*
X4757400Y1264900D03*
X4699000Y2286000D03*
X4394550Y2349500D03*
X4889500Y2286000D03*
X4757400Y2354600D03*
X4767600Y2672100D03*
X4572000Y2603500D03*
X4445000Y3302000D03*
X4254500Y3492500D03*
X5651500Y381000D03*
X5524500Y1714500D03*
X5207000Y2222500D03*
X5524500D03*
X5270500Y2603500D03*
X5524500Y1968500D03*
X5207000Y3048000D03*
X5015320Y3176180D03*
X5585460Y2758440D03*
X5461000Y3175000D03*
Y2921000D03*
X5207000Y2794000D03*
X5715000Y3492500D03*
X5588000Y3810000D03*
X6032500Y1524000D03*
Y2603500D03*
X5842000Y1968500D03*
X5969000Y3423900D03*
X6096000Y3556000D03*
X6985000Y2540000D03*
X7112000Y2286000D03*
X7048500Y3423900D03*
X7810500Y1778000D03*
X7874000Y1524000D03*
X7429500Y1460500D03*
X7620000Y1846600D03*
Y2159000D03*
X7683090Y3047750D03*
X7810500Y3111500D03*
X7556500Y3423900D03*
X7810500Y2857500D03*
X7874000Y3810000D03*
X7493000Y3873500D03*
X8636000Y1778000D03*
X8445500Y1905000D03*
X8763000Y1714500D03*
X8699500Y1968500D03*
X8191500Y2476500D03*
X8382000Y2603500D03*
X8448000Y2034500D03*
X8128000Y2984500D03*
X8382000Y2921000D03*
X8069600Y3296900D03*
X8445500Y3302000D03*
X8318500Y3365500D03*
X8763000Y3423900D03*
X8509000Y3492500D03*
X8318500Y3556000D03*
Y4064000D03*
X8890000Y1524000D03*
Y2286000D03*
X9144000Y1968500D03*
X9017000Y2476500D03*
X9144000Y3302000D03*
X9525000Y3238500D03*
X9144000Y3492500D03*
X9864640Y1482640D03*
X10604500Y2540000D03*
M02*
