G04 ================== begin FILE IDENTIFICATION RECORD ==================*
G04 Layout Name:  C:/Users/user/Desktop/work/avrUSB500/allegro/AVRUSB500kkk1111.brd*
G04 Film Name:    SilkT*
G04 File Format:  Gerber RS274X*
G04 File Origin:  Cadence Allegro 16.6-S034*
G04 Origin Date:  Fri Jul 19 12:47:41 2019*
G04 *
G04 Layer:  REF DES/SILKSCREEN_TOP*
G04 Layer:  PACKAGE GEOMETRY/SILKSCREEN_TOP*
G04 Layer:  BOARD GEOMETRY/SILKSCREEN_TOP*
G04 *
G04 Offset:    (0.0000 0.0000)*
G04 Mirror:    No*
G04 Mode:      Positive*
G04 Rotation:  0*
G04 FullContactRelief:  No*
G04 UndefLineWidth:     0.2000*
G04 ================== end FILE IDENTIFICATION RECORD ====================*
%FSLAX55Y55*MOMM*%
%IR0*IPPOS*OFA0.00000B0.00000*MIA0B0*SFA1.00000B1.00000*%
%ADD10C,.2*%
%ADD11C,.203*%
%ADD12C,.254*%
G75*
%LPD*%
G75*
G54D10*
G01X418130Y3489700D02*
X424800Y3477700D01*
X432800Y3469700D01*
X442130Y3465700D01*
X452800Y3469700D01*
X460800Y3477700D01*
X468800Y3489700D01*
X471470Y3505700D01*
Y3585700D01*
G01X603540Y3465700D02*
Y3585700D01*
X587540Y3561700D01*
G01Y3465700D02*
X619540D01*
G01X1078870Y355100D02*
X1086870Y349100D01*
X1096200Y345100D01*
X1106870D01*
X1118870Y351100D01*
X1128200Y361100D01*
X1134870Y373100D01*
X1140200Y393100D01*
X1141530Y411100D01*
X1138870Y429100D01*
X1134870Y441100D01*
X1126870Y453100D01*
X1117530Y461100D01*
X1108200Y465100D01*
X1098870D01*
X1089530Y461100D01*
X1081530Y455100D01*
X1074870Y447100D01*
G01X974790Y415100D02*
X965460Y401100D01*
X957460Y393100D01*
X946790Y389100D01*
X937460Y393100D01*
X930790Y401100D01*
X925460Y413100D01*
X924130Y427100D01*
X925460Y439100D01*
X930790Y451100D01*
X938790Y461100D01*
X948130Y465100D01*
X958790Y461100D01*
X968130Y449100D01*
X973460Y431100D01*
X974790Y411100D01*
X972130Y385100D01*
X968130Y371100D01*
X961460Y357100D01*
X952130Y347100D01*
X942790Y345100D01*
X933460Y349100D01*
X926790Y359100D01*
G01X355100Y1461130D02*
X349100Y1453130D01*
X345100Y1443800D01*
Y1433130D01*
X351100Y1421130D01*
X361100Y1411800D01*
X373100Y1405130D01*
X393100Y1399800D01*
X411100Y1398470D01*
X429100Y1401130D01*
X441100Y1405130D01*
X453100Y1413130D01*
X461100Y1422470D01*
X465100Y1431800D01*
Y1441130D01*
X461100Y1450470D01*
X455100Y1458470D01*
X447100Y1465130D01*
G01X465100Y1590540D02*
X345100D01*
X369100Y1574540D01*
G01X465100D02*
Y1606540D01*
G01X345100Y1749280D02*
X349100Y1738610D01*
X359100Y1730610D01*
X371100Y1725280D01*
X387100Y1721280D01*
X405100Y1719950D01*
X423100Y1721280D01*
X439100Y1725280D01*
X451100Y1730610D01*
X461100Y1738610D01*
X465100Y1749280D01*
X461100Y1759950D01*
X451100Y1767950D01*
X439100Y1773280D01*
X423100Y1777280D01*
X405100Y1778610D01*
X387100Y1777280D01*
X371100Y1773280D01*
X359100Y1767950D01*
X349100Y1759950D01*
X345100Y1749280D01*
G01X1715130Y1168900D02*
X1707130Y1174900D01*
X1697800Y1178900D01*
X1687130D01*
X1675130Y1172900D01*
X1665800Y1162900D01*
X1659130Y1150900D01*
X1653800Y1130900D01*
X1652470Y1112900D01*
X1655130Y1094900D01*
X1659130Y1082900D01*
X1667130Y1070900D01*
X1676470Y1062900D01*
X1685800Y1058900D01*
X1695130D01*
X1704470Y1062900D01*
X1712470Y1068900D01*
X1719130Y1076900D01*
G01X1815210D02*
X1823210Y1066900D01*
X1832540Y1060900D01*
X1844540Y1058900D01*
X1856540Y1062900D01*
X1865870Y1070900D01*
X1872540Y1084900D01*
X1873870Y1100900D01*
X1871210Y1116900D01*
X1864540Y1126900D01*
X1855210Y1134900D01*
X1845870Y1136900D01*
X1836540Y1134900D01*
X1824540Y1126900D01*
X1828540Y1178900D01*
X1864540D01*
G01X1992170Y1639900D02*
Y1519900D01*
X1958830D01*
X1948170Y1525900D01*
X1941500Y1533900D01*
X1938830Y1549900D01*
X1941500Y1565900D01*
X1949500Y1575900D01*
X1958830Y1581900D01*
X1992170D01*
G01X1958830D02*
X1938830Y1639900D01*
G01X1832090Y1539900D02*
X1824090Y1527900D01*
X1814760Y1521900D01*
X1804090Y1519900D01*
X1790760Y1523900D01*
X1781430Y1533900D01*
X1778760Y1545900D01*
X1780090Y1557900D01*
X1785430Y1567900D01*
X1812090Y1587900D01*
X1824090Y1601900D01*
X1832090Y1621900D01*
X1834760Y1639900D01*
X1778760D01*
G01X1992170Y2147900D02*
Y2027900D01*
X1958830D01*
X1948170Y2033900D01*
X1941500Y2041900D01*
X1938830Y2057900D01*
X1941500Y2073900D01*
X1949500Y2083900D01*
X1958830Y2089900D01*
X1992170D01*
G01X1958830D02*
X1938830Y2147900D01*
G01X1836090Y2123900D02*
X1828090Y2137900D01*
X1817430Y2145900D01*
X1805430Y2147900D01*
X1794760Y2145900D01*
X1784090Y2135900D01*
X1777430Y2123900D01*
X1776090Y2111900D01*
X1778760Y2097900D01*
X1788090Y2087900D01*
X1797430Y2083900D01*
X1809430D01*
G01X1797430D02*
X1789430Y2077900D01*
X1782760Y2067900D01*
X1780090Y2055900D01*
X1782760Y2043900D01*
X1789430Y2033900D01*
X1801430Y2027900D01*
X1813430Y2029900D01*
X1825430Y2037900D01*
G01X1992170Y2655900D02*
Y2535900D01*
X1958830D01*
X1948170Y2541900D01*
X1941500Y2549900D01*
X1938830Y2565900D01*
X1941500Y2581900D01*
X1949500Y2591900D01*
X1958830Y2597900D01*
X1992170D01*
G01X1958830D02*
X1938830Y2655900D01*
G01X1790760D02*
Y2535900D01*
X1840090Y2621900D01*
X1773430D01*
G01X1992170Y3163900D02*
Y3043900D01*
X1958830D01*
X1948170Y3049900D01*
X1941500Y3057900D01*
X1938830Y3073900D01*
X1941500Y3089900D01*
X1949500Y3099900D01*
X1958830Y3105900D01*
X1992170D01*
G01X1958830D02*
X1938830Y3163900D01*
G01X1806760D02*
Y3043900D01*
X1822760Y3067900D01*
G01Y3163900D02*
X1790760D01*
G01X1632020D02*
Y3043900D01*
X1681350Y3129900D01*
X1614690D01*
G01X2731130Y1168900D02*
X2723130Y1174900D01*
X2713800Y1178900D01*
X2703130D01*
X2691130Y1172900D01*
X2681800Y1162900D01*
X2675130Y1150900D01*
X2669800Y1130900D01*
X2668470Y1112900D01*
X2671130Y1094900D01*
X2675130Y1082900D01*
X2683130Y1070900D01*
X2692470Y1062900D01*
X2701800Y1058900D01*
X2711130D01*
X2720470Y1062900D01*
X2728470Y1068900D01*
X2735130Y1076900D01*
G01X2837870Y1072900D02*
X2847210Y1062900D01*
X2857870Y1058900D01*
X2868540Y1062900D01*
X2877870Y1074900D01*
X2884540Y1092900D01*
X2887210Y1110900D01*
Y1132900D01*
X2884540Y1150900D01*
X2877870Y1166900D01*
X2869870Y1174900D01*
X2860540Y1178900D01*
X2849870Y1174900D01*
X2841870Y1166900D01*
X2836540Y1154900D01*
X2833870Y1138900D01*
X2836540Y1124900D01*
X2843210Y1110900D01*
X2851210Y1102900D01*
X2860540Y1100900D01*
X2871210Y1104900D01*
X2879210Y1114900D01*
X2887210Y1132900D01*
G01X1965700Y3899870D02*
X1953700Y3893200D01*
X1945700Y3885200D01*
X1941700Y3875870D01*
X1945700Y3865200D01*
X1953700Y3857200D01*
X1965700Y3849200D01*
X1981700Y3846530D01*
X2061700D01*
G01X1941700Y3698460D02*
X2061700D01*
X1975700Y3747790D01*
Y3681130D01*
G01X3493130Y1422900D02*
X3485130Y1428900D01*
X3475800Y1432900D01*
X3465130D01*
X3453130Y1426900D01*
X3443800Y1416900D01*
X3437130Y1404900D01*
X3431800Y1384900D01*
X3430470Y1366900D01*
X3433130Y1348900D01*
X3437130Y1336900D01*
X3445130Y1324900D01*
X3454470Y1316900D01*
X3463800Y1312900D01*
X3473130D01*
X3482470Y1316900D01*
X3490470Y1322900D01*
X3497130Y1330900D01*
G01X3593210Y1336900D02*
X3601210Y1322900D01*
X3611870Y1314900D01*
X3623870Y1312900D01*
X3634540Y1314900D01*
X3645210Y1324900D01*
X3651870Y1336900D01*
X3653210Y1348900D01*
X3650540Y1362900D01*
X3641210Y1372900D01*
X3631870Y1376900D01*
X3619870D01*
G01X3631870D02*
X3639870Y1382900D01*
X3646540Y1392900D01*
X3649210Y1404900D01*
X3646540Y1416900D01*
X3639870Y1426900D01*
X3627870Y1432900D01*
X3615870Y1430900D01*
X3603870Y1422900D01*
G01X4156200Y1512900D02*
Y1458900D01*
X4182870Y1392900D01*
G01X4129530D02*
X4156200Y1458900D01*
G01X4022790Y1412900D02*
X4014790Y1400900D01*
X4005460Y1394900D01*
X3994790Y1392900D01*
X3981460Y1396900D01*
X3972130Y1406900D01*
X3969460Y1418900D01*
X3970790Y1430900D01*
X3976130Y1440900D01*
X4002790Y1460900D01*
X4014790Y1474900D01*
X4022790Y1494900D01*
X4025460Y1512900D01*
X3969460D01*
G01X4634870Y609100D02*
X4642870Y603100D01*
X4652200Y599100D01*
X4662870D01*
X4674870Y605100D01*
X4684200Y615100D01*
X4690870Y627100D01*
X4696200Y647100D01*
X4697530Y665100D01*
X4694870Y683100D01*
X4690870Y695100D01*
X4682870Y707100D01*
X4673530Y715100D01*
X4664200Y719100D01*
X4654870D01*
X4645530Y715100D01*
X4637530Y709100D01*
X4630870Y701100D01*
G01X4530790Y619100D02*
X4522790Y607100D01*
X4513460Y601100D01*
X4502790Y599100D01*
X4489460Y603100D01*
X4480130Y613100D01*
X4477460Y625100D01*
X4478790Y637100D01*
X4484130Y647100D01*
X4510790Y667100D01*
X4522790Y681100D01*
X4530790Y701100D01*
X4533460Y719100D01*
X4477460D01*
G01X4301900Y1918000D02*
Y1950000D01*
G01Y1934000D02*
X4421900D01*
G01Y1918000D02*
Y1950000D01*
G01X4311900Y2122070D02*
X4305900Y2114070D01*
X4301900Y2104740D01*
Y2094070D01*
X4307900Y2082070D01*
X4317900Y2072740D01*
X4329900Y2066070D01*
X4349900Y2060740D01*
X4367900Y2059410D01*
X4385900Y2062070D01*
X4397900Y2066070D01*
X4409900Y2074070D01*
X4417900Y2083410D01*
X4421900Y2092740D01*
Y2102070D01*
X4417900Y2111410D01*
X4411900Y2119410D01*
X4403900Y2126070D01*
G01X4421900Y2251480D02*
X4301900D01*
X4325900Y2235480D01*
G01X4421900D02*
Y2267480D01*
G01X4673100Y2985130D02*
X4667100Y2977130D01*
X4663100Y2967800D01*
Y2957130D01*
X4669100Y2945130D01*
X4679100Y2935800D01*
X4691100Y2929130D01*
X4711100Y2923800D01*
X4729100Y2922470D01*
X4747100Y2925130D01*
X4759100Y2929130D01*
X4771100Y2937130D01*
X4779100Y2946470D01*
X4783100Y2955800D01*
Y2965130D01*
X4779100Y2974470D01*
X4773100Y2982470D01*
X4765100Y2989130D01*
G01X4783100Y3130540D02*
X4663100D01*
X4749100Y3081210D01*
Y3147870D01*
G01X4357830Y3948100D02*
Y4068100D01*
X4391170D01*
X4401830Y4062100D01*
X4408500Y4054100D01*
X4411170Y4038100D01*
X4408500Y4022100D01*
X4400500Y4012100D01*
X4391170Y4006100D01*
X4357830D01*
G01X4391170D02*
X4411170Y3948100D01*
G01X4540570D02*
X4543240Y3974100D01*
X4547240Y3996100D01*
X4552570Y4016100D01*
X4559240Y4038100D01*
X4569910Y4068100D01*
X4516570D01*
G01X5486900Y2348870D02*
X5492900Y2356870D01*
X5496900Y2366200D01*
Y2376870D01*
X5490900Y2388870D01*
X5480900Y2398200D01*
X5468900Y2404870D01*
X5448900Y2410200D01*
X5430900Y2411530D01*
X5412900Y2408870D01*
X5400900Y2404870D01*
X5388900Y2396870D01*
X5380900Y2387530D01*
X5376900Y2378200D01*
Y2368870D01*
X5380900Y2359530D01*
X5386900Y2351530D01*
X5394900Y2344870D01*
G01X5376900Y2219460D02*
X5496900D01*
X5472900Y2235460D01*
G01X5376900D02*
Y2203460D01*
G01X6564170Y623900D02*
Y503900D01*
X6530830D01*
X6520170Y509900D01*
X6513500Y517900D01*
X6510830Y533900D01*
X6513500Y549900D01*
X6521500Y559900D01*
X6530830Y565900D01*
X6564170D01*
G01X6530830D02*
X6510830Y623900D01*
G01X6408090Y605900D02*
X6400090Y615900D01*
X6390760Y621900D01*
X6378760Y623900D01*
X6366760Y619900D01*
X6357430Y611900D01*
X6350760Y597900D01*
X6349430Y581900D01*
X6352090Y565900D01*
X6358760Y555900D01*
X6368090Y547900D01*
X6377430Y545900D01*
X6386760Y547900D01*
X6398760Y555900D01*
X6394760Y503900D01*
X6358760D01*
G01X6564170Y1131900D02*
Y1011900D01*
X6530830D01*
X6520170Y1017900D01*
X6513500Y1025900D01*
X6510830Y1041900D01*
X6513500Y1057900D01*
X6521500Y1067900D01*
X6530830Y1073900D01*
X6564170D01*
G01X6530830D02*
X6510830Y1131900D01*
G01X6404090Y1081900D02*
X6394760Y1067900D01*
X6386760Y1059900D01*
X6376090Y1055900D01*
X6366760Y1059900D01*
X6360090Y1067900D01*
X6354760Y1079900D01*
X6353430Y1093900D01*
X6354760Y1105900D01*
X6360090Y1117900D01*
X6368090Y1127900D01*
X6377430Y1131900D01*
X6388090Y1127900D01*
X6397430Y1115900D01*
X6402760Y1097900D01*
X6404090Y1077900D01*
X6401430Y1051900D01*
X6397430Y1037900D01*
X6390760Y1023900D01*
X6381430Y1013900D01*
X6372090Y1011900D01*
X6362760Y1015900D01*
X6356090Y1025900D01*
G01X6135830Y1916100D02*
Y2036100D01*
X6169170D01*
X6179830Y2030100D01*
X6186500Y2022100D01*
X6189170Y2006100D01*
X6186500Y1990100D01*
X6178500Y1980100D01*
X6169170Y1974100D01*
X6135830D01*
G01X6169170D02*
X6189170Y1916100D01*
G01X6321240D02*
Y2036100D01*
X6305240Y2012100D01*
G01Y1916100D02*
X6337240D01*
G01X6135830Y2424100D02*
Y2544100D01*
X6169170D01*
X6179830Y2538100D01*
X6186500Y2530100D01*
X6189170Y2514100D01*
X6186500Y2498100D01*
X6178500Y2488100D01*
X6169170Y2482100D01*
X6135830D01*
G01X6169170D02*
X6189170Y2424100D01*
G01X6321240D02*
Y2544100D01*
X6305240Y2520100D01*
G01Y2424100D02*
X6337240D01*
G01X6479980D02*
Y2544100D01*
X6463980Y2520100D01*
G01Y2424100D02*
X6495980D01*
G01X6135830Y2932100D02*
Y3052100D01*
X6169170D01*
X6179830Y3046100D01*
X6186500Y3038100D01*
X6189170Y3022100D01*
X6186500Y3006100D01*
X6178500Y2996100D01*
X6169170Y2990100D01*
X6135830D01*
G01X6169170D02*
X6189170Y2932100D01*
G01X6321240D02*
Y3052100D01*
X6305240Y3028100D01*
G01Y2932100D02*
X6337240D01*
G01X6454650Y3032100D02*
X6462650Y3044100D01*
X6471980Y3050100D01*
X6482650Y3052100D01*
X6495980Y3048100D01*
X6505310Y3038100D01*
X6507980Y3026100D01*
X6506650Y3014100D01*
X6501310Y3004100D01*
X6474650Y2984100D01*
X6462650Y2970100D01*
X6454650Y2950100D01*
X6451980Y2932100D01*
X6507980D01*
G01X6135830Y3440100D02*
Y3560100D01*
X6169170D01*
X6179830Y3554100D01*
X6186500Y3546100D01*
X6189170Y3530100D01*
X6186500Y3514100D01*
X6178500Y3504100D01*
X6169170Y3498100D01*
X6135830D01*
G01X6169170D02*
X6189170Y3440100D01*
G01X6321240D02*
Y3560100D01*
X6305240Y3536100D01*
G01Y3440100D02*
X6337240D01*
G01X6450650Y3464100D02*
X6458650Y3450100D01*
X6469310Y3442100D01*
X6481310Y3440100D01*
X6491980Y3442100D01*
X6502650Y3452100D01*
X6509310Y3464100D01*
X6510650Y3476100D01*
X6507980Y3490100D01*
X6498650Y3500100D01*
X6489310Y3504100D01*
X6477310D01*
G01X6489310D02*
X6497310Y3510100D01*
X6503980Y3520100D01*
X6506650Y3532100D01*
X6503980Y3544100D01*
X6497310Y3554100D01*
X6485310Y3560100D01*
X6473310Y3558100D01*
X6461310Y3550100D01*
G01X6564170Y3671900D02*
Y3551900D01*
X6530830D01*
X6520170Y3557900D01*
X6513500Y3565900D01*
X6510830Y3581900D01*
X6513500Y3597900D01*
X6521500Y3607900D01*
X6530830Y3613900D01*
X6564170D01*
G01X6530830D02*
X6510830Y3671900D01*
G01X6378760D02*
Y3551900D01*
X6394760Y3575900D01*
G01Y3671900D02*
X6362760D01*
G01X6249350Y3653900D02*
X6241350Y3663900D01*
X6232020Y3669900D01*
X6220020Y3671900D01*
X6208020Y3667900D01*
X6198690Y3659900D01*
X6192020Y3645900D01*
X6190690Y3629900D01*
X6193350Y3613900D01*
X6200020Y3603900D01*
X6209350Y3595900D01*
X6218690Y3593900D01*
X6228020Y3595900D01*
X6240020Y3603900D01*
X6236020Y3551900D01*
X6200020D01*
G01X7276130Y3489700D02*
X7282800Y3477700D01*
X7290800Y3469700D01*
X7300130Y3465700D01*
X7310800Y3469700D01*
X7318800Y3477700D01*
X7326800Y3489700D01*
X7329470Y3505700D01*
Y3585700D01*
G01X7432210Y3489700D02*
X7440210Y3475700D01*
X7450870Y3467700D01*
X7462870Y3465700D01*
X7473540Y3467700D01*
X7484210Y3477700D01*
X7490870Y3489700D01*
X7492210Y3501700D01*
X7489540Y3515700D01*
X7480210Y3525700D01*
X7470870Y3529700D01*
X7458870D01*
G01X7470870D02*
X7478870Y3535700D01*
X7485540Y3545700D01*
X7488210Y3557700D01*
X7485540Y3569700D01*
X7478870Y3579700D01*
X7466870Y3585700D01*
X7454870Y3583700D01*
X7442870Y3575700D01*
G01X7492670Y2365600D02*
Y2279600D01*
X7498000Y2261600D01*
X7508670Y2249600D01*
X7522000Y2245600D01*
X7535330Y2249600D01*
X7546000Y2261600D01*
X7551330Y2279600D01*
Y2365600D01*
G01X7680740Y2245600D02*
Y2365600D01*
X7664740Y2341600D01*
G01Y2245600D02*
X7696740D01*
G01X8596170Y623900D02*
Y503900D01*
X8562830D01*
X8552170Y509900D01*
X8545500Y517900D01*
X8542830Y533900D01*
X8545500Y549900D01*
X8553500Y559900D01*
X8562830Y565900D01*
X8596170D01*
G01X8562830D02*
X8542830Y623900D01*
G01X8410760D02*
X8401430Y621900D01*
X8390760Y615900D01*
X8384090Y605900D01*
X8381430Y591900D01*
X8384090Y577900D01*
X8392090Y565900D01*
X8404090Y559900D01*
X8417430D01*
X8425430Y555900D01*
X8432090Y545900D01*
X8434760Y531900D01*
X8430760Y517900D01*
X8421430Y507900D01*
X8410760Y503900D01*
X8400090Y507900D01*
X8390760Y517900D01*
X8386760Y531900D01*
X8389430Y545900D01*
X8396090Y555900D01*
X8404090Y559900D01*
X8417430D01*
X8429430Y565900D01*
X8437430Y577900D01*
X8440090Y591900D01*
X8437430Y605900D01*
X8430760Y615900D01*
X8420090Y621900D01*
X8410760Y623900D01*
G01X8596170Y1131900D02*
Y1011900D01*
X8562830D01*
X8552170Y1017900D01*
X8545500Y1025900D01*
X8542830Y1041900D01*
X8545500Y1057900D01*
X8553500Y1067900D01*
X8562830Y1073900D01*
X8596170D01*
G01X8562830D02*
X8542830Y1131900D01*
G01X8433430Y1117900D02*
X8424090Y1127900D01*
X8413430Y1131900D01*
X8402760Y1127900D01*
X8393430Y1115900D01*
X8386760Y1097900D01*
X8384090Y1079900D01*
Y1057900D01*
X8386760Y1039900D01*
X8393430Y1023900D01*
X8401430Y1015900D01*
X8410760Y1011900D01*
X8421430Y1015900D01*
X8429430Y1023900D01*
X8434760Y1035900D01*
X8437430Y1051900D01*
X8434760Y1065900D01*
X8428090Y1079900D01*
X8420090Y1087900D01*
X8410760Y1089900D01*
X8400090Y1085900D01*
X8392090Y1075900D01*
X8384090Y1057900D01*
G01X8916330Y3513100D02*
Y3393100D01*
X8889670D01*
X8879000Y3399100D01*
X8871000Y3407100D01*
X8864330Y3419100D01*
X8859000Y3433100D01*
X8857670Y3453100D01*
X8859000Y3473100D01*
X8864330Y3487100D01*
X8871000Y3499100D01*
X8879000Y3507100D01*
X8889670Y3513100D01*
X8916330D01*
G01X8728260D02*
Y3393100D01*
X8744260Y3417100D01*
G01Y3513100D02*
X8712260D01*
G01X9663100Y2886200D02*
X9717100D01*
X9783100Y2912870D01*
G01Y2859530D02*
X9717100Y2886200D01*
G01X9663100Y2727460D02*
X9783100D01*
X9759100Y2743460D01*
G01X9663100D02*
Y2711460D01*
G01X9691830Y3948100D02*
Y4068100D01*
X9725170D01*
X9735830Y4062100D01*
X9742500Y4054100D01*
X9745170Y4038100D01*
X9742500Y4022100D01*
X9734500Y4012100D01*
X9725170Y4006100D01*
X9691830D01*
G01X9725170D02*
X9745170Y3948100D01*
G01X9877240D02*
Y4068100D01*
X9861240Y4044100D01*
G01Y3948100D02*
X9893240D01*
G01X10035980Y4068100D02*
X10025310Y4064100D01*
X10017310Y4054100D01*
X10011980Y4042100D01*
X10007980Y4026100D01*
X10006650Y4008100D01*
X10007980Y3990100D01*
X10011980Y3974100D01*
X10017310Y3962100D01*
X10025310Y3952100D01*
X10035980Y3948100D01*
X10046650Y3952100D01*
X10054650Y3962100D01*
X10059980Y3974100D01*
X10063980Y3990100D01*
X10065310Y4008100D01*
X10063980Y4026100D01*
X10059980Y4042100D01*
X10054650Y4054100D01*
X10046650Y4064100D01*
X10035980Y4068100D01*
G01X10566900Y2602870D02*
X10572900Y2610870D01*
X10576900Y2620200D01*
Y2630870D01*
X10570900Y2642870D01*
X10560900Y2652200D01*
X10548900Y2658870D01*
X10528900Y2664200D01*
X10510900Y2665530D01*
X10492900Y2662870D01*
X10480900Y2658870D01*
X10468900Y2650870D01*
X10460900Y2641530D01*
X10456900Y2632200D01*
Y2622870D01*
X10460900Y2613530D01*
X10466900Y2605530D01*
X10474900Y2598870D01*
G01X10456900Y2476130D02*
X10482900Y2473460D01*
X10504900Y2469460D01*
X10524900Y2464130D01*
X10546900Y2457460D01*
X10576900Y2446790D01*
Y2500130D01*
G01X10566900Y3364870D02*
X10572900Y3372870D01*
X10576900Y3382200D01*
Y3392870D01*
X10570900Y3404870D01*
X10560900Y3414200D01*
X10548900Y3420870D01*
X10528900Y3426200D01*
X10510900Y3427530D01*
X10492900Y3424870D01*
X10480900Y3420870D01*
X10468900Y3412870D01*
X10460900Y3403530D01*
X10456900Y3394200D01*
Y3384870D01*
X10460900Y3375530D01*
X10466900Y3367530D01*
X10474900Y3360870D01*
G01X10456900Y3235460D02*
X10458900Y3226130D01*
X10464900Y3215460D01*
X10474900Y3208790D01*
X10488900Y3206130D01*
X10502900Y3208790D01*
X10514900Y3216790D01*
X10520900Y3228790D01*
Y3242130D01*
X10524900Y3250130D01*
X10534900Y3256790D01*
X10548900Y3259460D01*
X10562900Y3255460D01*
X10572900Y3246130D01*
X10576900Y3235460D01*
X10572900Y3224790D01*
X10562900Y3215460D01*
X10548900Y3211460D01*
X10534900Y3214130D01*
X10524900Y3220790D01*
X10520900Y3228790D01*
Y3242130D01*
X10514900Y3254130D01*
X10502900Y3262130D01*
X10488900Y3264790D01*
X10474900Y3262130D01*
X10464900Y3255460D01*
X10458900Y3244790D01*
X10456900Y3235460D01*
G54D11*
G01X1174700Y762000D02*
G02I-285700J0D01*
G01X1047700Y1651000D02*
G02I-285700J0D01*
G01X635000Y2146300D02*
X381000D01*
G01X635000Y3441700D02*
Y2146300D01*
G01X381000Y2540000D02*
Y2794000D01*
G01Y2286000D02*
Y2540000D01*
G01Y2146300D02*
Y2286000D01*
G01Y3302000D02*
Y3441700D01*
G01Y3048000D02*
Y3302000D01*
G01Y2794000D02*
Y3048000D01*
G01X622300Y3683000D02*
Y3937000D01*
G01X1917700Y3683000D02*
X622300D01*
G01X1016000Y3937000D02*
X1270000D01*
G01X762000D02*
X1016000D01*
G01X622300D02*
X762000D01*
G01X381000Y3441700D02*
X635000D01*
G01X2190700Y762000D02*
G02I-285700J0D01*
G01X1460500Y1778000D02*
X1397000D01*
G01X2095500Y1651000D02*
X1460500D01*
G01D02*
Y1778000D01*
G01D02*
Y1905000D01*
G01Y2286000D02*
X1397000D01*
G01X2095500Y2159000D02*
X1460500D01*
G01D02*
Y2286000D01*
G01D02*
Y2413000D01*
G01D02*
X2095500D01*
G01X1460500Y1905000D02*
X2095500D01*
G01X1460500Y2794000D02*
X1397000D01*
G01X2095500Y2667000D02*
X1460500D01*
G01D02*
Y2794000D01*
G01D02*
Y2921000D01*
G01D02*
X2095500D01*
G01X1460500Y3302000D02*
X1397000D01*
G01X2095500Y3175000D02*
X1460500D01*
G01D02*
Y3302000D01*
G01D02*
Y3429000D01*
G01X1778000Y3937000D02*
X1917700D01*
G01X1524000D02*
X1778000D01*
G01X1270000D02*
X1524000D01*
G01X1460500Y3429000D02*
X2095500D01*
G01Y1778000D02*
X2159000D01*
G01X2095500Y1905000D02*
Y1778000D01*
G01D02*
Y1651000D01*
G01Y2286000D02*
X2159000D01*
G01X2095500Y2413000D02*
Y2286000D01*
G01D02*
Y2159000D01*
G01Y2794000D02*
X2159000D01*
G01X2095500Y2921000D02*
Y2794000D01*
G01D02*
Y2667000D01*
G01Y3302000D02*
X2159000D01*
G01X2095500Y3429000D02*
Y3302000D01*
G01D02*
Y3175000D01*
G01X1917700Y3937000D02*
Y3683000D01*
G01X3206700Y762000D02*
G02I-285700J0D01*
G01X4508500Y1524000D02*
X3365500D01*
G01D02*
Y2032000D01*
G01D02*
X4508500D01*
G01X3968700Y1016000D02*
G02I-285700J0D01*
G01X4730700D02*
G02I-285700J0D01*
G01X4508500Y2032000D02*
Y1524000D01*
G01X5365700Y2159000D02*
G02I-285700J0D01*
G01Y3175000D02*
G02I-285700J0D01*
G01X4254500Y3810000D02*
X4191000D01*
G01X4889500D02*
X4953000D01*
G01X4254500Y3683000D02*
Y3810000D01*
G01D02*
Y3937000D01*
G01D02*
X4889500D01*
G01D02*
Y3810000D01*
G01D02*
Y3683000D01*
G01D02*
X4254500D01*
G01X6032500Y762000D02*
X5969000D01*
G01X6667500Y635000D02*
X6032500D01*
G01D02*
Y762000D01*
G01D02*
Y889000D01*
G01D02*
X6667500D01*
G01X6032500Y1270000D02*
X5969000D01*
G01X6667500Y1143000D02*
X6032500D01*
G01D02*
Y1270000D01*
G01D02*
Y1397000D01*
G01D02*
X6667500D01*
G01X6032500Y1778000D02*
X5969000D01*
G01X6032500Y1651000D02*
Y1778000D01*
G01D02*
Y1905000D01*
G01X6667500Y1651000D02*
X6032500D01*
G01Y1905000D02*
X6667500D01*
G01X6032500Y2286000D02*
X5969000D01*
G01X6032500Y2159000D02*
Y2286000D01*
G01D02*
Y2413000D01*
G01D02*
X6667500D01*
G01Y2159000D02*
X6032500D01*
G01Y2794000D02*
X5969000D01*
G01X6032500Y2667000D02*
Y2794000D01*
G01D02*
Y2921000D01*
G01D02*
X6667500D01*
G01Y2667000D02*
X6032500D01*
G01Y3302000D02*
X5969000D01*
G01X6032500Y3175000D02*
Y3302000D01*
G01D02*
Y3429000D01*
G01X6667500Y3175000D02*
X6032500D01*
G01Y3429000D02*
X6667500D01*
G01X6032500Y3810000D02*
X5969000D01*
G01X6667500Y3683000D02*
X6032500D01*
G01D02*
Y3810000D01*
G01D02*
Y3937000D01*
G01D02*
X6667500D01*
G01Y762000D02*
X6731000D01*
G01X6667500Y889000D02*
Y762000D01*
G01D02*
Y635000D01*
G01Y1270000D02*
X6731000D01*
G01X6667500Y1397000D02*
Y1270000D01*
G01D02*
Y1143000D01*
G01Y1778000D02*
X6731000D01*
G01X6667500Y1905000D02*
Y1778000D01*
G01D02*
Y1651000D01*
G01Y2286000D02*
X6731000D01*
G01X6667500Y2413000D02*
Y2286000D01*
G01D02*
Y2159000D01*
G01Y2794000D02*
X6731000D01*
G01X6667500Y2921000D02*
Y2794000D01*
G01D02*
Y2667000D01*
G01Y3302000D02*
X6731000D01*
G01X6667500Y3429000D02*
Y3302000D01*
G01D02*
Y3175000D01*
G01Y3810000D02*
X6731000D01*
G01X6667500Y3937000D02*
Y3810000D01*
G01D02*
Y3683000D01*
G01X7493000Y2146300D02*
X7239000D01*
G01X7493000Y3441700D02*
Y2146300D01*
G01X7239000Y2540000D02*
Y2794000D01*
G01Y2286000D02*
Y2540000D01*
G01Y2146300D02*
Y2286000D01*
G01Y3302000D02*
Y3441700D01*
G01Y3048000D02*
Y3302000D01*
G01Y2794000D02*
Y3048000D01*
G01Y3441700D02*
X7493000D01*
G01X8699500Y762000D02*
X8763000D01*
G01X8064500D02*
X8001000D01*
G01X8699500Y889000D02*
Y762000D01*
G01D02*
Y635000D01*
G01D02*
X8064500D01*
G01D02*
Y762000D01*
G01D02*
Y889000D01*
G01D02*
X8699500D01*
G01Y1270000D02*
X8763000D01*
G01X8064500D02*
X8001000D01*
G01X8699500Y1397000D02*
Y1270000D01*
G01D02*
Y1143000D01*
G01D02*
X8064500D01*
G01D02*
Y1270000D01*
G01D02*
Y1397000D01*
G01D02*
X8699500D01*
G01X9048700Y3810000D02*
G02X8731300Y3492500I-317400J-100D01*
G02Y4127500I0J317500D01*
G02X9048700Y3810000I0J-317400D01*
G01X9652000Y2095500D02*
X9144000D01*
G01D02*
Y3238500D01*
G01D02*
X9652000D01*
G01D02*
Y2095500D01*
G01X10445700Y2413000D02*
G02I-285700J0D01*
G01Y3175000D02*
G02I-285700J0D01*
G01X9588500Y3810000D02*
X9525000D01*
G01X10223500D02*
X10287000D01*
G01X9588500Y3683000D02*
Y3810000D01*
G01D02*
Y3937000D01*
G01D02*
X10223500D01*
G01D02*
Y3810000D01*
G01D02*
Y3683000D01*
G01D02*
X9588500D01*
G54D12*
G01X4448800Y2470700D02*
X4306100D01*
G01X8058700Y2218700D02*
Y2361400D01*
M02*
