G04 ================== begin FILE IDENTIFICATION RECORD ==================*
G04 Layout Name:  C:/Users/user/Desktop/work/avrUSB500/allegro/AVRUSB500kkk1111.brd*
G04 Film Name:    SolderB*
G04 File Format:  Gerber RS274X*
G04 File Origin:  Cadence Allegro 16.6-S034*
G04 Origin Date:  Fri Jul 19 12:47:41 2019*
G04 *
G04 Layer:  PIN/SOLDERMASK_BOTTOM*
G04 Layer:  BOARD GEOMETRY/SOLDERMASK_BOTTOM*
G04 *
G04 Offset:    (0.0000 0.0000)*
G04 Mirror:    No*
G04 Mode:      Positive*
G04 Rotation:  0*
G04 FullContactRelief:  No*
G04 UndefLineWidth:     0.0000*
G04 ================== end FILE IDENTIFICATION RECORD ====================*
%FSLAX55Y55*MOMM*%
%IR0*IPPOS*OFA0.00000B0.00000*MIA0B0*SFA1.00000B1.00000*%
%ADD14O,1.2X1.9*%
%ADD11C,1.321*%
%ADD10R,1.321X1.321*%
%ADD12C,1.575*%
%ADD13R,1.575X1.575*%
%LPD*%
G75*
G54D10*
X1016000Y762000D03*
X762000Y1524000D03*
X1778000Y762000D03*
X2794000D03*
X3556000Y1016000D03*
X4572000D03*
X5080000Y2286000D03*
Y3048000D03*
X8890000Y3810000D03*
X10160000Y2540000D03*
Y3302000D03*
G54D11*
X762000Y762000D03*
Y1778000D03*
X1270000D03*
Y2286000D03*
Y3302000D03*
Y2794000D03*
X2032000Y762000D03*
X2286000Y1778000D03*
Y2286000D03*
Y2794000D03*
Y3302000D03*
X3048000Y762000D03*
X3810000Y1016000D03*
X3556000Y1778000D03*
X4064000Y3810000D03*
X4318000Y1016000D03*
Y1778000D03*
X5080000Y2032000D03*
Y3302000D03*
Y3810000D03*
X5842000Y762000D03*
Y1270000D03*
Y1778000D03*
Y2286000D03*
Y2794000D03*
Y3302000D03*
Y3810000D03*
X6858000Y762000D03*
Y1270000D03*
Y1778000D03*
Y2286000D03*
Y2794000D03*
Y3302000D03*
Y3810000D03*
X7874000Y762000D03*
Y1270000D03*
X8572500Y3810000D03*
X8890000Y762000D03*
Y1270000D03*
X9398000Y2286000D03*
Y3048000D03*
Y3810000D03*
X10160000Y2286000D03*
Y3048000D03*
X10414000Y3810000D03*
G54D12*
X508000Y2286000D03*
Y2540000D03*
Y3048000D03*
Y2794000D03*
X762000Y3810000D03*
X1016000D03*
X1270000D03*
X1524000D03*
X7366000Y2286000D03*
Y2540000D03*
Y2794000D03*
Y3048000D03*
G54D13*
X508000Y3302000D03*
X1778000Y3810000D03*
X7366000Y3302000D03*
G54D14*
X9457000Y698500D03*
Y1068500D03*
X10482000Y698500D03*
Y1068500D03*
M02*
