G04 ================== begin FILE IDENTIFICATION RECORD ==================*
G04 Layout Name:  C:/Users/user/Desktop/work/avrUSB500/allegro/AVRUSB500kkk1111.brd*
G04 Film Name:    TOP*
G04 File Format:  Gerber RS274X*
G04 File Origin:  Cadence Allegro 16.6-S034*
G04 Origin Date:  Fri Jul 19 12:47:42 2019*
G04 *
G04 Layer:  ETCH/TOP*
G04 Layer:  PIN/TOP*
G04 Layer:  VIA CLASS/TOP*
G04 *
G04 Offset:    (0.0000 0.0000)*
G04 Mirror:    No*
G04 Mode:      Positive*
G04 Rotation:  0*
G04 FullContactRelief:  No*
G04 UndefLineWidth:     0.0000*
G04 ================== end FILE IDENTIFICATION RECORD ====================*
%FSLAX55Y55*MOMM*%
%IR0*IPPOS*OFA0.00000B0.00000*MIA0B0*SFA1.00000B1.00000*%
%ADD20R,.4X1.7*%
%ADD14C,.61*%
%ADD15O,.457X1.778*%
%ADD17O,1.778X.457*%
%ADD16R,.457X1.778*%
%ADD18R,1.778X.457*%
%ADD19O,1.2X1.9*%
%ADD21R,1.1X1.72*%
%ADD11C,1.321*%
%ADD10R,1.321X1.321*%
%ADD12C,1.575*%
%ADD13R,1.575X1.575*%
%ADD22C,.254*%
%ADD23C,.381*%
%ADD24C,.382*%
%ADD26O,2.0324X.7114*%
%ADD27O,.6574X1.9784*%
%ADD25O,1.9784X.6574*%
%ADD32R,1.9784X.6574*%
%ADD31R,.6574X1.9784*%
%ADD33O,1.4004X2.1004*%
%ADD28C,1.5754*%
%ADD30C,1.8294*%
%ADD29R,1.5754X1.5754*%
G75*
%LPD*%
G75*
G36*
G01X7785080Y3747990D02*
Y3417560D01*
X7848580Y3354060D01*
Y3316960D01*
G02X7831240Y3309770I-10160J-2D01*
G01X7800890Y3340120D01*
X7470170D01*
Y3406170D01*
X7404120D01*
Y3673390D01*
X7356390Y3721120D01*
X6922270D01*
G02X6915850Y3739150I7J10160D01*
G03X6941150Y3771880I-57845J70857D01*
G01X7445290D01*
X7490990Y3817580D01*
X7493090D01*
G03X7437080Y3873590I-90J55920D01*
G01Y3871490D01*
X7413710Y3848120D01*
X6941150D01*
G03X6800150Y3739150I-83149J-38118D01*
G02X6793730Y3721120I-6427J-7870D01*
G01X5906270D01*
G02X5899850Y3739150I7J10160D01*
G03X5827240Y3900270I-57852J70850D01*
G02X5815440Y3910290I-1640J10027D01*
G01Y3989710D01*
X5767710Y4037440D01*
X3502110D01*
X3454380Y3989710D01*
Y3914410D01*
G03X3458490Y3829110I38121J-40912D01*
G02X3459500Y3813860I-6175J-8067D01*
G01X3420960Y3775320D01*
G02X3403620Y3782510I-7180J7188D01*
G01Y3800390D01*
X3355890Y3848120D01*
X1882170D01*
Y3914170D01*
X1673830D01*
Y3721120D01*
X1606910D01*
G02X1599540Y3738280I-2J10162D01*
G03X1485880Y3713060I-75542J71722D01*
G01Y3690050D01*
X1500970Y3674960D01*
G02X1493780Y3657620I-7188J-7180D01*
G01X1311190D01*
X1308120Y3660690D01*
Y3713060D01*
G03X1231880I-38120J96940D01*
G01Y3689610D01*
G02X1214540Y3682420I-10160J-2D01*
G01X1165690Y3731270D01*
X1148640D01*
X1111550Y3768360D01*
X1112780Y3771470D01*
G03X1054530Y3713220I-96780J38530D01*
G01X1057640Y3714450D01*
X1097130Y3674960D01*
G02X1089940Y3657620I-7188J-7180D01*
G01X517610D01*
X469880Y3609890D01*
Y3406170D01*
X403830D01*
Y3197830D01*
X612170D01*
Y3406170D01*
X546120D01*
Y3578310D01*
X549190Y3581380D01*
X1135910D01*
X1296560Y3420730D01*
Y3402290D01*
G02X1284760Y3392270I-10160J7D01*
G03X1356780Y3330900I-14763J-90269D01*
G01X1355790Y3333880D01*
X1372800Y3350890D01*
Y3452310D01*
X1324570Y3500540D01*
G02X1331760Y3517880I7188J7180D01*
G01X2223760D01*
X2230780Y3510860D01*
Y3447990D01*
X2143730Y3360940D01*
Y3243060D01*
X2227060Y3159730D01*
X2344940D01*
X2398290Y3213080D01*
X2858990D01*
X2876790Y3195280D01*
X2910310D01*
X2959080Y3146510D01*
Y2767690D01*
X2914580Y2723190D01*
Y2173710D01*
X2959080Y2129210D01*
Y1774390D01*
G02X2944630Y1765180I-10160J0D01*
G03X2921090Y1770420I-23634J-50679D01*
G01X2918990D01*
X2873290Y1816120D01*
X2369150D01*
G03X2304460Y1867590I-83150J-38119D01*
G02X2299330Y1884720I2056J9949D01*
G01X2451120Y2036510D01*
Y2276390D01*
X2403390Y2324120D01*
X2369150D01*
G03X2356850Y2228150I-83150J-38116D01*
G02X2374880Y2221730I7870J-6427D01*
G01Y2068090D01*
X2143730Y1836940D01*
Y1231360D01*
X2206710Y1168380D01*
X2372090D01*
G03Y1244620I40910J38120D01*
G01X2238290D01*
X2219970Y1262940D01*
Y1693110D01*
G02X2235710Y1701590I10158J-7D01*
G03X2369150Y1739880I50289J76408D01*
G01X2841710D01*
X2865080Y1716510D01*
Y1714410D01*
G03X2944630Y1663820I55919J91D01*
G02X2959080Y1654610I4290J-9210D01*
G01Y1432010D01*
X3016180Y1374910D01*
Y1373710D01*
X3055550Y1334340D01*
X3055590Y1332300D01*
G03X3086040Y1283710I55909J1200D01*
G02X3088590Y1267480I-4630J-9043D01*
G01X3066980Y1245870D01*
Y1069760D01*
X3257480Y879260D01*
Y847380D01*
X3245360Y835260D01*
X3228200D01*
X3129940Y933520D01*
X2902560D01*
X2855860Y886820D01*
G02X2838520Y894010I-7180J7188D01*
G01Y945540D01*
X2787040Y997020D01*
X2428080D01*
X2422980Y991920D01*
X2403020D01*
X2397920Y997020D01*
X1784960D01*
X1733480Y945540D01*
Y853470D01*
X1686530D01*
Y806520D01*
X1107470D01*
Y853470D01*
X924530D01*
Y670530D01*
X1107470D01*
Y717480D01*
X1686530D01*
Y670530D01*
X1869470D01*
Y853470D01*
X1822520D01*
Y907980D01*
X2361040D01*
X2366140Y902880D01*
X2459860D01*
X2464960Y907980D01*
X2749480D01*
Y853470D01*
X2702530D01*
Y670530D01*
X2885470D01*
Y790510D01*
X2939440Y844480D01*
X2996250D01*
G02X3002160Y826060I-3J-10159D01*
G03X3078300Y834710I45839J-64060D01*
G01X3075170Y836010D01*
Y844480D01*
X3093060D01*
X3191320Y746220D01*
X3282240D01*
X3346520Y810500D01*
Y916140D01*
X3156020Y1106640D01*
Y1208990D01*
X3231020Y1283990D01*
Y1383010D01*
X3156020Y1458010D01*
Y2089640D01*
X3218320Y2151940D01*
Y2293060D01*
X3156020Y2355360D01*
Y2623160D01*
X3345840Y2812980D01*
X3433540D01*
X3436040Y2815480D01*
X3448210D01*
Y2807850D01*
X3446170Y2806330D01*
G03X3465850Y2747130I19680J-26329D01*
G01X3597950D01*
G03Y2812870I0J32870D01*
G01X3558200D01*
X3555510Y2822260D01*
G03X3561930Y2827130I-23585J37759D01*
G01X3630820D01*
Y2830880D01*
X3700060D01*
X3860160Y2990980D01*
X3880980D01*
X3896380Y2975580D01*
Y2941370D01*
X3957370Y2880380D01*
X4043630D01*
X4104620Y2941370D01*
Y2975580D01*
X4120020Y2990980D01*
X4300160D01*
X4301200Y2990480D01*
G03X4315450Y2987230I14250J29615D01*
G01X4351470D01*
G03X4358030Y2982270I30016J32880D01*
G01X4355360Y2972870D01*
X4315450D01*
G03Y2907130I0J-32870D01*
G01X4447550D01*
G03X4474070Y2959420I0J32870D01*
G02X4482270Y2975580I8198J6000D01*
G01X4903470D01*
X4924930Y2954120D01*
Y2945070D01*
X4977070Y2892930D01*
X5130470D01*
G02X5137660Y2875590I2J-10160D01*
G01X5100280Y2838210D01*
Y2749790D01*
X5162790Y2687280D01*
X5242010D01*
X5256140Y2673150D01*
G02X5252270Y2656360I-7185J-7185D01*
G03X5229590Y2641620I18227J-52864D01*
G01X4830480D01*
G02X4820810Y2654900I-2J10159D01*
G03X4711680Y2672190I-53210J17199D01*
G01Y2670090D01*
X4497810Y2456220D01*
X4350340D01*
X4287830Y2393710D01*
Y2305290D01*
X4315160Y2277960D01*
G02X4307970Y2260620I-7188J-7180D01*
G01X3500930D01*
X3453200Y2212890D01*
Y1826890D01*
X3455300Y1824790D01*
G02X3451710Y1816120I-3594J-3590D01*
G01X3311610D01*
X3263880Y1768390D01*
Y1404130D01*
X3269180Y1398830D01*
Y1268170D01*
X3263880Y1262870D01*
Y1052760D01*
X3338760Y977880D01*
X3385800D01*
X3459890Y1051970D01*
G02X3477230Y1044780I7180J-7188D01*
G01Y937230D01*
X3634770D01*
Y1082030D01*
X3690060D01*
X3724210Y1047880D01*
X3723220Y1044900D01*
G03X3781100Y1102780I86780J-28900D01*
G01X3778120Y1101790D01*
X3721640Y1158270D01*
X3458370D01*
X3362280Y1062180D01*
X3340120Y1084340D01*
Y1231290D01*
X3345420Y1236590D01*
Y1430410D01*
X3340120Y1435710D01*
Y1736810D01*
X3343190Y1739880D01*
X3472850D01*
G03X3541240Y1868270I83149J38118D01*
G02X3529440Y1878290I-1640J10027D01*
G01Y2181310D01*
X3532510Y2184380D01*
X4522690D01*
X4527790Y2179280D01*
X4743210D01*
X4805720Y2241790D01*
Y2251990D01*
X4864120Y2310390D01*
Y2398810D01*
X4800620Y2462310D01*
Y2562310D01*
X4803690Y2565380D01*
X5229590D01*
G03X5294130Y2552820I40911J38121D01*
G02X5308580Y2543610I4290J-9210D01*
G01Y2411510D01*
X5290780Y2393710D01*
Y2305290D01*
X5353290Y2242780D01*
X5417780D01*
Y2178290D01*
X5422880Y2173190D01*
Y2017810D01*
X5417780Y2012710D01*
Y1924290D01*
X5480290Y1861780D01*
X5505450D01*
X5731500Y1635730D01*
X5900940D01*
X5984270Y1719060D01*
Y1972860D01*
X6005290Y1993880D01*
X7070810D01*
X7073880Y1990810D01*
Y1856210D01*
X7121610Y1808480D01*
X7606240D01*
X7607030Y1808210D01*
G03Y1884990I12970J38390D01*
G01X7606240Y1884720D01*
X7153190D01*
X7150120Y1887790D01*
Y2022390D01*
X7132470Y2040040D01*
G02X7139660Y2057380I7188J7180D01*
G01X7475270D01*
X7565620Y2147730D01*
G02X7582260Y2144240I7178J-7188D01*
G03X7653550Y2136280I37737J14759D01*
G01X7704070D01*
X7787780Y2052570D01*
Y1811550D01*
G03X7809700Y1737490I22721J-33549D01*
G02X7816690Y1720150I-198J-10159D01*
G01X7792060Y1695520D01*
X6929400D01*
G02X6922260Y1712910I0J10161D01*
G03X6813480Y1698100I-64260J65092D01*
G01Y1657960D01*
X6864960Y1606480D01*
X7776440D01*
G02X7783630Y1589140I2J-10160D01*
G01X7708880Y1514390D01*
Y1311190D01*
X7705810Y1308120D01*
X6941150D01*
G03Y1231880I-83150J-38120D01*
G01X7737390D01*
X7766490Y1260980D01*
G02X7783700Y1255410I7180J-7187D01*
G03X7912120Y1353150I90300J14591D01*
G01Y1483090D01*
G03X7927210Y1541200I-38120J40913D01*
G02X7936880Y1554480I9668J3121D01*
G01X8827120D01*
G02X8836790Y1541200I2J-10159D01*
G03X8845480Y1490160I53210J-17200D01*
G01Y1349900D01*
G03Y1190100I44520J-79900D01*
G01Y1060520D01*
X7829480D01*
Y841900D01*
G03X7918520I44520J-79900D01*
G01Y971480D01*
X8934520D01*
Y1190100D01*
G03Y1349900I-44520J79900D01*
G01Y1490160D01*
G03X8943210Y1541200I-44520J33840D01*
G02X8952880Y1554480I9668J3121D01*
G01X9810740D01*
X9852100Y1513120D01*
X9877270D01*
X9895120Y1495270D01*
Y1470010D01*
X9866380Y1441270D01*
Y1216520D01*
X9324480D01*
Y561480D01*
X9996380D01*
Y485690D01*
X9993310Y482620D01*
X9058190D01*
X9055120Y485690D01*
Y752390D01*
X9007390Y800120D01*
X8973150D01*
G03X8928130Y845140I-83145J-38125D01*
G01Y847100D01*
G03X8851870I-38130J0D01*
G01Y845140D01*
G03X8960850Y704150I38127J-83143D01*
G02X8978880Y697730I7870J-6427D01*
G01Y454110D01*
X8983830Y449160D01*
G02X8976640Y431820I-7188J-7180D01*
G01X7330990D01*
X7277120Y485690D01*
Y752390D01*
X7229390Y800120D01*
X6941150D01*
G03Y723880I-83150J-38120D01*
G01X7197810D01*
X7200880Y720810D01*
Y454110D01*
X7256630Y398360D01*
G02X7249440Y381020I-7188J-7180D01*
G01X5794290D01*
X5758220Y417090D01*
Y425210D01*
X5753120Y430310D01*
Y697730D01*
G02X5771150Y704150I10160J-7D01*
G03X5758850Y800120I70850J57854D01*
G01X5724610D01*
X5676880Y752390D01*
Y445300D01*
G02X5664380Y435420I-10159J5D01*
G03X5610590Y419120I-12874J-54418D01*
G01X3279410D01*
G03Y342880I-40910J-38120D01*
G01X5610590D01*
G03X5698790Y351160I40910J38121D01*
G02X5714570Y352920I8593J-5422D01*
G01X5750140Y317350D01*
G02X5742950Y300010I-7188J-7180D01*
G01X236510D01*
Y4199990D01*
X10636490D01*
Y2133620D01*
X8834860D01*
G03X8807910Y2122450I8J-38117D01*
G01X8793480Y2108030D01*
Y2082870D01*
X8775630Y2065020D01*
X8753910D01*
X8743710Y2075220D01*
X8740170D01*
X8732520Y2082870D01*
Y2108030D01*
X8726220Y2114330D01*
Y2286010D01*
G03X8720970Y2305310I-38121J-6D01*
G01Y2352050D01*
G03X8655230I-32870J0D01*
G01Y2305310D01*
G03X8650990Y2294740I32865J-19319D01*
G01X8650070Y2290820D01*
X8640970D01*
Y2352050D01*
G03X8575230I-32870J0D01*
G01Y2219950D01*
G03X8585380Y2196200I32861J0D01*
G01Y1796490D01*
X8596140Y1785720D01*
X8595820Y1783240D01*
G03X8596100Y1770950I40180J-5233D01*
G02X8586100Y1759020I-10005J-1770D01*
G01X8460580D01*
X8455480Y1753920D01*
X8435520D01*
X8430420Y1759020D01*
X8412520D01*
Y1859750D01*
G02X8427250Y1868820I10159J-2D01*
G03X8485680Y1910240I18250J36179D01*
G01X8485360Y1912720D01*
X8550720Y1978090D01*
Y2196200D01*
G03X8560870Y2219950I-22711J23750D01*
G01Y2352050D01*
G03X8495130I-32870J0D01*
G01Y2219950D01*
G03X8505280Y2196200I32861J0D01*
G01Y1996910D01*
X8453220Y1944860D01*
X8450740Y1945180D01*
G03X8427250Y1941180I-5243J-40180D01*
G02X8412520Y1950250I-4571J9072D01*
G01Y1990600D01*
G02X8427760Y1999400I10161J0D01*
G03X8470720Y2068050I20240J35101D01*
G01Y2196200D01*
G03X8480870Y2219950I-22711J23750D01*
G01Y2352050D01*
G03X8415130I-32870J0D01*
G01Y2312300D01*
X8405740Y2309610D01*
G03X8400870Y2316030I-37759J-23585D01*
G01Y2352050D01*
G03X8335130I-32870J0D01*
G01Y2316030D01*
G03X8334320Y2315120I32848J-30054D01*
G01X8321680D01*
G03X8320870Y2316030I-33658J-29144D01*
G01Y2352050D01*
G03X8317620Y2366300I-32865J0D01*
G01X8317120Y2367340D01*
Y2900060D01*
X8267060Y2950120D01*
X8179440D01*
X8156590Y2927270D01*
X8128610D01*
X8116800Y2939080D01*
X8122070Y2944350D01*
X8124440Y2944140D01*
G03X8161550Y2961780I3562J40362D01*
G01X8340610D01*
X8390720Y3011890D01*
Y3045800D01*
G03X8400870Y3069550I-22711J23750D01*
G01Y3201650D01*
G03X8335130I-32870J0D01*
G01Y3069550D01*
G03X8345280Y3045800I32861J0D01*
G01Y3030710D01*
X8321790Y3007220D01*
X8161550D01*
G03X8094500Y3007300I-33552J-22719D01*
G02X8077400Y3007770I-8399J5714D01*
G03X8049250Y3023670I-28150J-16969D01*
G01X8021320D01*
Y3054840D01*
X7975620Y3100540D01*
Y3161290D01*
G02X7992960Y3168480I10160J2D01*
G01X8063960Y3097480D01*
X8095130D01*
Y3069550D01*
G03X8160870I32870J0D01*
G01Y3116290D01*
G03X8165110Y3126860I-32865J19319D01*
G01X8166030Y3130780D01*
X8175130D01*
Y3069550D01*
G03X8240870I32870J0D01*
G01Y3201650D01*
G03X8175130I-32870J0D01*
G01Y3140420D01*
X8166030D01*
X8165110Y3144340D01*
G03X8160870Y3154910I-37105J-8749D01*
G01Y3201650D01*
G03X8095130I-32870J0D01*
G01Y3198660D01*
G02X8077790Y3191470I-10160J-2D01*
G01X8026420Y3242840D01*
Y3258460D01*
G02X8043200Y3266160I10160J-6D01*
G03X8103150Y3274180I26399J30740D01*
G01X8134910D01*
X8140010Y3279280D01*
X8275570D01*
X8280670Y3274180D01*
X8356330D01*
X8361430Y3279280D01*
X8411950D01*
G03X8472860Y3272110I33551J22720D01*
G02X8489880Y3264620I6861J-7493D01*
G01Y3234520D01*
X8415130D01*
Y3036680D01*
X8425280D01*
Y2996410D01*
X8389720Y2960860D01*
X8387240Y2961180D01*
G03X8422180Y2926240I-5240J-40180D01*
G01X8421860Y2928720D01*
X8470720Y2977590D01*
Y3036680D01*
X8480870D01*
Y3130780D01*
X8489970D01*
X8490890Y3126860D01*
G03X8495130Y3116290I37105J8749D01*
G01Y3069550D01*
G03X8560870I32870J0D01*
G01Y3116290D01*
G03X8563340Y3121310I-32878J19294D01*
G02X8572760I4710J-1903D01*
G03X8575230Y3116290I35348J14274D01*
G01Y3069550D01*
G03X8640970I32870J0D01*
G01Y3116290D01*
G03X8642820Y3119870I-32893J19266D01*
G01X8644170Y3122850D01*
X8652530D01*
Y3069550D01*
G03X8723670I35570J0D01*
G01Y3201650D01*
G03X8663430Y3227270I-35568J0D01*
G02X8646220Y3234590I-7049J7318D01*
G01Y3462240D01*
G02X8663560Y3469430I10160J2D01*
G01X8707080Y3425910D01*
Y3423810D01*
G03X8763090Y3479820I55920J90D01*
G01X8760990D01*
X8608590Y3632220D01*
X8592060D01*
X8574260Y3650020D01*
X8443740D01*
X8380070Y3586350D01*
G02X8364520Y3587760I-7188J7182D01*
G03X8356620Y3596910I-46027J-31754D01*
G01Y3782340D01*
G02X8373960Y3789530I10160J2D01*
G01X8391610Y3771880D01*
X8489350D01*
G03Y3848120I83150J38120D01*
G01X8423190D01*
X8420120Y3851190D01*
Y4014690D01*
X8425220Y4019790D01*
Y4108210D01*
X8362710Y4170720D01*
X2686810D01*
X2628880Y4112790D01*
Y4104970D01*
X2627400Y4103480D01*
G03X2720210Y4081200I39602J-39481D01*
G02X2729880Y4094480I9668J3121D01*
G01X8255620D01*
G02X8265290Y4081200I2J-10159D01*
G03X8280380Y4023090I53210J-17197D01*
G01Y3596910D01*
G03X8300960Y3502900I38121J-40912D01*
G02X8304950Y3486070I-3192J-9645D01*
G01X8291100Y3472220D01*
X8274290D01*
X8264090Y3462020D01*
X8102100D01*
X8013720Y3550400D01*
Y3726940D01*
X8031520Y3744740D01*
Y3875260D01*
X7939260Y3967520D01*
X7808740D01*
X7716480Y3875260D01*
Y3850100D01*
X7625080Y3758700D01*
Y3546390D01*
X7558510Y3479820D01*
X7556410D01*
G03X7612420Y3423810I90J-55920D01*
G01Y3425910D01*
X7701320Y3514810D01*
Y3727120D01*
X7749940Y3775740D01*
G02X7767280Y3768550I7180J-7188D01*
G01Y3765790D01*
X7785080Y3747990D01*
G37*
G36*
G01X2369150Y3340120D02*
G03X2304460Y3391590I-83150J-38119D01*
G02X2299330Y3408720I2056J9949D01*
G01X2307020Y3416410D01*
Y3542440D01*
X2285420Y3564040D01*
G02X2292610Y3581380I7188J7180D01*
G01X2371810D01*
X2374880Y3578310D01*
Y3379460D01*
X2396880Y3357460D01*
G02X2389690Y3340120I-7188J-7180D01*
G01X2369150D01*
G37*
G36*
G01X3152690Y3138220D02*
X3149620Y3141290D01*
Y3355890D01*
X2809790Y3695720D01*
X2492290D01*
X2466890Y3721120D01*
X1882170D01*
Y3771880D01*
X3324310D01*
X3327380Y3768810D01*
Y3753590D01*
X3287850Y3714060D01*
Y3389240D01*
X3328810Y3348280D01*
X3329180Y3347530D01*
G03X3373590Y3325800I36315J17973D01*
G02X3385780Y3315840I2029J-9956D01*
G01Y3257790D01*
X3395980Y3247590D01*
Y3233260D01*
X3375840Y3213120D01*
X3315760D01*
X3314970Y3213390D01*
G03X3267520Y3153720I-12969J-38389D01*
G02X3258870Y3138220I-8644J-5340D01*
G01X3152690D01*
G37*
G36*
G01X3056040Y3292730D02*
X3027720Y3321050D01*
Y3346210D01*
X2965210Y3408720D01*
X2876790D01*
X2858990Y3390920D01*
X2471240D01*
X2451120Y3411040D01*
Y3609890D01*
X2424800Y3636210D01*
G02X2428390Y3644880I3594J3590D01*
G01X2435310D01*
X2460710Y3619480D01*
X2778210D01*
X3073380Y3324310D01*
Y3299920D01*
G02X3056040Y3292730I-10160J-2D01*
G37*
G36*
G01X3149620Y2767210D02*
Y2898810D01*
X3152690Y2901880D01*
X3284290D01*
G02X3291480Y2884540I2J-10160D01*
G01X3166960Y2760020D01*
G02X3149620Y2767210I-7180J7188D01*
G37*
G36*
G01X3103460Y2960470D02*
G02X3086120Y2967660I-7180J7188D01*
G01Y2978910D01*
X3100350Y2993150D01*
G03X3104010Y2997380I-26918J26989D01*
G01X3442100D01*
G03X3443720Y2995790I23821J22650D01*
G02X3436880Y2978120I-6838J-7512D01*
G01X3121110D01*
X3103460Y2960470D01*
G37*
G36*
G01X3104010Y3042820D02*
G03X3100350Y3047050I-30578J-22759D01*
G01X3086120Y3061290D01*
Y3072440D01*
G02X3103460Y3079630I10160J2D01*
G01X3121110Y3061980D01*
X3436770D01*
G02X3443640Y3044330I5J-10160D01*
G03X3442100Y3042820I22230J-24212D01*
G01X3104010D01*
G37*
G36*
G01X5516460Y2179470D02*
G02X5499120Y2186660I-7180J7188D01*
G01Y2204770D01*
X5494020Y2209870D01*
Y2235130D01*
X5496570Y2237680D01*
Y2258570D01*
G03X5485400Y2285520I-38117J-8D01*
G01X5431020Y2339910D01*
X5410130Y2319020D01*
X5384870D01*
X5367020Y2336870D01*
Y2362130D01*
X5384820Y2379930D01*
Y2652290D01*
X5298570Y2738540D01*
G02X5305760Y2755880I7188J7180D01*
G01X5462260D01*
X5478740Y2739400D01*
Y2714230D01*
X5541250Y2651720D01*
X5629670D01*
X5692180Y2714230D01*
Y2750790D01*
X5707470Y2766080D01*
X5732730D01*
X5742930Y2755880D01*
X5758850D01*
G03X5764330Y2842320I83149J38122D01*
G01X5675890D01*
X5631870Y2798300D01*
G02X5624710Y2798270I-3595J3589D01*
G03X5585550Y2814360I-39251J-39830D01*
G01X5583450D01*
X5538650Y2859160D01*
Y2897260D01*
X5516920Y2918990D01*
Y2921090D01*
G03X5483840Y2972040I-55919J-92D01*
G02X5480810Y2988500I4152J9273D01*
G01X5514910Y3022600D01*
X5421910Y3115600D01*
X5290330D01*
X5235790Y3170140D01*
X5148230D01*
X5117560Y3139470D01*
X4988530D01*
Y3040970D01*
G02X4971190Y3033780I-10160J-2D01*
G01X4940350Y3064620D01*
X4485630D01*
G02X4477170Y3080410I-2J10161D01*
G03X4447550Y3135670I-29620J19692D01*
G01X4315450D01*
G03Y3064530I0J-35570D01*
G01X4351310D01*
G02X4354400Y3055420I-4J-5080D01*
G03X4351470Y3052970I27067J-35347D01*
G01X4315450D01*
G03X4301200Y3049720I0J-32865D01*
G01X4300160Y3049220D01*
X4095900D01*
X4046380Y2999700D01*
Y2965490D01*
X4019510Y2938620D01*
X3981490D01*
X3954620Y2965490D01*
Y2999700D01*
X3905100Y3049220D01*
X3836040D01*
X3675940Y2889120D01*
X3630820D01*
Y2892870D01*
X3561930D01*
G03X3555510Y2897740I-30005J-32889D01*
G01X3558200Y2907130D01*
X3597950D01*
G03Y2972870I0J32870D01*
G01X3551210D01*
G03X3540250Y2977190I-19290J-32878D01*
G01X3536290Y2978080D01*
Y2987230D01*
X3597950D01*
G03Y3052970I0J32870D01*
G01X3536720D01*
Y3062070D01*
X3540640Y3062990D01*
G03X3551210Y3067230I-8749J37105D01*
G01X3597950D01*
G03X3603450Y3132510I0J32872D01*
G01X3599220Y3133220D01*
Y3223060D01*
X3581850Y3240420D01*
X3599220Y3257790D01*
Y3346210D01*
X3581420Y3364010D01*
Y3514810D01*
X3647990Y3581380D01*
X3661310D01*
G02X3664900Y3572710I-4J-5080D01*
G01X3638580Y3546390D01*
Y3244800D01*
G03X3643830Y3225490I38121J-4D01*
G01Y3178750D01*
G03X3709570I32870J0D01*
G01Y3225490D01*
G03X3713810Y3236060I-32865J19319D01*
G01X3714730Y3239980D01*
X3723830D01*
Y3178750D01*
G03X3789570I32870J0D01*
G01Y3310850D01*
G03X3732470Y3333060I-32869J0D01*
G02X3714820Y3339930I-7490J6865D01*
G01Y3383120D01*
G02X3729290Y3392310I10158J-7D01*
G03Y3465690I17210J36690D01*
G02X3714820Y3474880I-4312J9197D01*
G01Y3514810D01*
X3717890Y3517880D01*
X3952160D01*
G02X3961850Y3504670I-1J-10159D01*
G03X4034050Y3469780I38649J-12170D01*
G01X4121890D01*
X4133980Y3457690D01*
Y3343720D01*
X4123830D01*
Y3145880D01*
X4189570D01*
Y3343720D01*
X4179420D01*
Y3476510D01*
X4155390Y3500540D01*
G02X4162580Y3517880I7188J7180D01*
G01X4206160D01*
G02X4215850Y3504670I-1J-10159D01*
G03X4267470Y3454110I38650J-12171D01*
G01X4268260Y3454380D01*
X5674090D01*
G03X5769420Y3505380I40913J38121D01*
G02X5779300Y3517880I9885J2341D01*
G01X5827040D01*
G02X5834230Y3500540I2J-10160D01*
G01X5803880Y3470190D01*
Y3385150D01*
G03X5777740Y3236910I38121J-83147D01*
G02X5770600Y3219520I-7140J-7229D01*
G01X5494840D01*
G03Y3130480I-33840J-44520D01*
G01X5924480D01*
Y3054960D01*
X5975960Y3003480D01*
X7157060D01*
X7284060Y2876480D01*
X7293980D01*
Y2869290D01*
X7292480Y2867800D01*
G03X7269060Y2832120I73528J-73789D01*
G01X6941150D01*
G03Y2755880I-83150J-38120D01*
G01X7269060D01*
G03X7290460Y2722280I96939J38126D01*
G02X7283090Y2705120I-7368J-6998D01*
G01X7185110D01*
X7137380Y2657390D01*
Y2644690D01*
X7134310Y2641620D01*
X7034310D01*
X7029210Y2646720D01*
X6940790D01*
X6935690Y2641620D01*
X6073410D01*
G03Y2565380I-40910J-38120D01*
G01X6967270D01*
X6972370Y2570480D01*
X6997630D01*
X7002730Y2565380D01*
X7084340D01*
G02X7091530Y2548040I2J-10160D01*
G01X7010380Y2466890D01*
Y2454190D01*
X7007310Y2451120D01*
X6994610D01*
X6946880Y2403390D01*
Y2350280D01*
G02X6928850Y2343850I-10160J-3D01*
G03X6800150Y2215150I-70850J-57850D01*
G02X6793720Y2197120I-6427J-7870D01*
G01X5906280D01*
G02X5899850Y2215150I-3J10160D01*
G03X5784150I-57850J70850D01*
G02X5777720Y2197120I-6427J-7870D01*
G01X5542230D01*
X5537130Y2192020D01*
X5529010D01*
X5516460Y2179470D01*
G37*
G36*
G01X3487840Y3525670D02*
X3482890Y3530620D01*
X3470190D01*
X3467120Y3533690D01*
Y3641810D01*
X3470190Y3644880D01*
X3579140D01*
G02X3586330Y3627540I2J-10160D01*
G01X3505180Y3546390D01*
Y3532860D01*
G02X3487840Y3525670I-10160J-2D01*
G37*
G36*
G01X3991420Y3670120D02*
G03X3896090Y3721120I-54417J12879D01*
G01X3499110D01*
G02X3491920Y3738460I-2J10160D01*
G01X3520240Y3766780D01*
X3536710D01*
X3541810Y3771880D01*
X3980850D01*
G03Y3848120I83150J38120D01*
G01X3556800D01*
G02X3546920Y3860620I5J10159D01*
G03X3530620Y3914410I-54418J12874D01*
G01Y3958130D01*
X3533690Y3961200D01*
X5736130D01*
X5739200Y3958130D01*
Y3858890D01*
X5756210Y3841880D01*
X5755220Y3838900D01*
G03X5803880Y3726850I86782J-28904D01*
G01Y3692610D01*
X5821530Y3674960D01*
G02X5814340Y3657620I-7188J-7180D01*
G01X4001300D01*
G02X3991420Y3670120I5J10159D01*
G37*
G36*
G01X4787880Y2367230D02*
Y2341970D01*
X4761250Y2315340D01*
G02X4745600Y2316910I-7183J7185D01*
G03X4658090Y2324120I-46599J-30911D01*
G01X4462730D01*
X4457630Y2319020D01*
X4381920D01*
X4364070Y2336870D01*
Y2362130D01*
X4381920Y2379980D01*
X4529390D01*
X4707040Y2557630D01*
G02X4724380Y2550440I7180J-7188D01*
G01Y2430730D01*
X4787880Y2367230D01*
G37*
G36*
G01X5573810Y2120880D02*
X5687340D01*
G02X5694530Y2103540I2J-10160D01*
G01X5676880Y2085890D01*
Y1822700D01*
G02X5659540Y1815510I-10160J-2D01*
G01X5562220Y1912830D01*
G02X5562500Y1927470I7181J7185D01*
G03X5562620Y2009410I-38000J41026D01*
G01Y2115780D01*
X5568710D01*
X5573810Y2120880D01*
G37*
G36*
G01X5462410Y2832120D02*
X5348960D01*
G02X5341770Y2849460I-2J10160D01*
G01X5393500Y2901190D01*
G02X5409960Y2898160I7187J-7182D01*
G03X5457640Y2865180I51043J22838D01*
G02X5462410Y2860110I-309J-5070D01*
G01Y2832120D01*
G37*
G36*
G01X5390330Y3039360D02*
X5407090Y3022600D01*
X5285210Y2900720D01*
X5215250D01*
G02X5208060Y2918060I-2J10160D01*
G01X5235070Y2945070D01*
Y2949610D01*
X5251520Y2966060D01*
Y3014160D01*
G03X5261490Y3035420I-44517J33844D01*
G01X5262400Y3039360D01*
X5390330D01*
G37*
G36*
G01X5771150Y1835850D02*
G02X5753120Y1842280I-7870J6427D01*
G01Y2054310D01*
X5756190Y2057380D01*
X5936440D01*
G02X5943630Y2040040I2J-10160D01*
G01X5908030Y2004440D01*
Y2003790D01*
G02X5889280Y1998360I-10160J-5D01*
G03X5803880Y1927590I-47281J-29856D01*
G01Y1861150D01*
G03X5771150Y1835850I38127J-83145D01*
G37*
G36*
G01X6941150Y3263880D02*
X7096210D01*
X7270450Y3089640D01*
X7269220Y3086530D01*
G03X7261840Y3049050I96782J-38524D01*
G02X7244490Y3041970I-10161J101D01*
G01X7193940Y3092520D01*
X6013520D01*
Y3168040D01*
X5962040Y3219520D01*
X5913400D01*
G02X5906260Y3236910I0J10161D01*
G03X5880120Y3385150I-64261J65093D01*
G01Y3438610D01*
X5908590Y3467080D01*
X5911760D01*
G02X5920560Y3451840I2J-10160D01*
G03X6009910Y3385780I48441J-27936D01*
G01X6787940D01*
G02X6794940Y3368260I-2J-10159D01*
G03X6941150Y3263880I63062J-66258D01*
G37*
G36*
G01X7261830Y3406170D02*
Y3230610D01*
G02X7244490Y3223420I-10160J-2D01*
G01X7127790Y3340120D01*
X6941150D01*
G03X6921060Y3368260I-83149J-38121D01*
G02X6928060Y3385780I7002J7361D01*
G01X7007590D01*
G03Y3462020I40910J38120D01*
G01X6177480D01*
G02X6170290Y3479360I-2J10160D01*
G01X6202720Y3511790D01*
Y3600210D01*
X6175390Y3627540D01*
G02X6182580Y3644880I7188J7180D01*
G01X7324810D01*
X7327880Y3641810D01*
Y3406170D01*
X7261830D01*
G37*
G36*
G01X6915850Y2215150D02*
G03X6941150Y2247880I-57845J70857D01*
G01X6975390D01*
X6987940Y2260430D01*
G02X7005280Y2253240I7180J-7188D01*
G01Y2241790D01*
X7010380Y2236690D01*
Y2200190D01*
X7007310Y2197120D01*
X6922280D01*
G02X6915850Y2215150I-3J10160D01*
G37*
G36*
G01X7283090Y2451120D02*
X7126960D01*
G02X7119770Y2468460I-2J10160D01*
G01X7153190Y2501880D01*
X7269060D01*
G03X7290460Y2468280I96939J38126D01*
G02X7283090Y2451120I-7368J-6998D01*
G37*
G36*
G01X7076160Y2133620D02*
G02X7068970Y2150960I-2J10160D01*
G01X7086620Y2168610D01*
Y2268270D01*
X7081520Y2273370D01*
Y2298630D01*
X7086620Y2303730D01*
Y2350760D01*
X7110740Y2374880D01*
X7301720D01*
G02X7308150Y2356850I3J-10160D01*
G03X7423850I57850J-70850D01*
G02X7430280Y2374880I6427J7870D01*
G01X7546890D01*
X7594620Y2422610D01*
Y2579350D01*
X7715250Y2699980D01*
X7875560D01*
G02X7884800Y2685590I3J-10159D01*
G03X7891530Y2646130I32350J-14787D01*
G02X7884210Y2628920I-7318J-7049D01*
G01X7756610D01*
X7708880Y2581190D01*
Y2398810D01*
X7443690Y2133620D01*
X7076160D01*
G37*
G36*
G01X7785120Y1334280D02*
Y1482810D01*
X7806500Y1504190D01*
G02X7822960Y1501160I7187J-7182D01*
G03X7835880Y1483090I51041J22840D01*
G01Y1353150D01*
G03X7803150Y1327850I38127J-83145D01*
G02X7785120Y1334280I-7870J6427D01*
G37*
G36*
G01X10095910Y381020D02*
G02X10088720Y398360I-2J10160D01*
G01X10251840Y561480D01*
X10614520D01*
Y1216520D01*
X10300280D01*
X10286080Y1230720D01*
X9967410D01*
X9953210Y1216520D01*
X9942620D01*
Y1409690D01*
X9971360Y1438430D01*
Y1526850D01*
X9908850Y1589360D01*
X9883680D01*
X9842320Y1630720D01*
X7877710D01*
G02X7870520Y1648060I-2J10160D01*
G01X7892440Y1669980D01*
X8273440D01*
X8306140Y1702680D01*
G02X8323480Y1695490I7180J-7188D01*
G01Y1669980D01*
X8393540D01*
X8398640Y1664880D01*
X8492360D01*
X8497460Y1669980D01*
X8574990D01*
X8586490Y1658480D01*
X8685510D01*
X8697010Y1669980D01*
X8729160D01*
G03Y1759020I33840J44520D01*
G01X8685910D01*
G02X8675900Y1770950I-5J10160D01*
G03X8635910Y1818520I-39901J7051D01*
G02X8630820Y1823600I-10J5080D01*
G01Y2196200D01*
G03X8632330Y2197740I-22702J23770D01*
G02X8649980Y2190870I7490J-6865D01*
G01Y2082750D01*
X8656280Y2076450D01*
Y2051290D01*
X8685740Y2021830D01*
G02X8682750Y2005400I-7187J-7179D01*
G03X8733050Y1945780I16750J-36897D01*
G01X9110450D01*
G03Y1991220I33550J22720D01*
G01X8834180D01*
G02X8826990Y2008560I-2J10160D01*
G01X8869720Y2051290D01*
Y2057380D01*
X10626810D01*
X10629880Y2054310D01*
Y422190D01*
X10588710Y381020D01*
X10095910D01*
G37*
G36*
G01X7850400Y1770950D02*
G03X7833220Y1811550I-39901J7051D01*
G01Y2071390D01*
X7722890Y2181720D01*
X7653550D01*
G03X7634760Y2196740I-33556J-22715D01*
G02X7631270Y2213380I3698J9462D01*
G01X7785120Y2367230D01*
Y2549610D01*
X7788190Y2552680D01*
X7884210D01*
G02X7891530Y2535470I2J-10161D01*
G03X7917150Y2475230I25620J-24672D01*
G01X8049250D01*
G03Y2546370I0J35570D01*
G01X7995950D01*
Y2554730D01*
X7998930Y2556080D01*
G03X8002510Y2557930I-15686J34743D01*
G01X8082120D01*
Y2623670D01*
X8002510D01*
G03X7998930Y2625520I-19266J-32893D01*
G01X7995950Y2626870D01*
Y2635230D01*
X8049250D01*
G03Y2706370I0J35570D01*
G01X8004940D01*
G02X8001350Y2715040I4J5080D01*
G01X8004240Y2717930D01*
X8049250D01*
G03Y2783670I0J32870D01*
G01X8002510D01*
G03X7997600Y2786100I-19321J-32863D01*
G02Y2795500I1916J4700D01*
G03X8002510Y2797930I-14411J35293D01*
G01X8049250D01*
G03Y2863670I0J32870D01*
G01X8002510D01*
G03X7991940Y2867910I-19319J-32865D01*
G01X7988020Y2868830D01*
Y2877930D01*
X8049250D01*
G03X8063500Y2881180I0J32865D01*
G01X8064540Y2881680D01*
X8091840D01*
X8104490Y2869030D01*
X8180710D01*
X8203560Y2891880D01*
X8242940D01*
X8258880Y2875940D01*
Y2367340D01*
X8258380Y2366300D01*
G03X8255130Y2352050I29615J-14250D01*
G01Y2316030D01*
G03X8250260Y2309610I32889J-30005D01*
G01X8240870Y2312300D01*
Y2352050D01*
G03X8175130I-32870J0D01*
G01Y2219950D01*
G03X8227340Y2193370I32871J0D01*
G02X8243480Y2185160I5981J-8212D01*
G01Y1765940D01*
X8236560Y1759020D01*
X7860410D01*
G02X7850400Y1770950I-5J10160D01*
G37*
G36*
G01X7441540Y2468280D02*
G03Y2611720I-75540J71720D01*
G02X7448910Y2628880I7368J6998D01*
G01X7511800D01*
G02X7518990Y2611540I2J-10160D01*
G01X7518380Y2610930D01*
Y2454190D01*
X7515310Y2451120D01*
X7448910D01*
G02X7441540Y2468280I-2J10162D01*
G37*
G36*
G01Y2722280D02*
G03X7446680Y2859890I-75542J71723D01*
G02X7454550Y2876480I7868J6429D01*
G01X7543490D01*
G02X7550680Y2859140I2J-10160D01*
G01X7518380Y2826840D01*
Y2708190D01*
X7515310Y2705120D01*
X7448910D01*
G02X7441540Y2722280I-2J10162D01*
G37*
G36*
G01X7594620Y2711700D02*
Y2795260D01*
X7631440Y2832080D01*
X7684990D01*
X7723510Y2793560D01*
G02X7716320Y2776220I-7188J-7180D01*
G01X7683670D01*
X7611960Y2704510D01*
G02X7594620Y2711700I-7180J7188D01*
G37*
G36*
G01X7721560Y2908320D02*
X7631310D01*
G02X7624120Y2925660I-2J10160D01*
G01X7683550Y2985090D01*
Y2985250D01*
X7686440Y2988140D01*
G02X7703780Y2980950I7180J-7188D01*
G01Y2946590D01*
X7721560Y2928810D01*
Y2908320D01*
G37*
G36*
G01X7691660Y3091440D02*
G03X7651610Y3079230I-8567J-43689D01*
G01X7594510Y3022130D01*
Y3021970D01*
X7538060Y2965520D01*
X7454550D01*
G02X7446680Y2982110I-2J10161D01*
G03X7327470Y3144780I-80683J65888D01*
G01X7324360Y3143550D01*
X7287420Y3180490D01*
G02X7294610Y3197830I7188J7180D01*
G01X7470170D01*
Y3263880D01*
X7769310D01*
X7772380Y3260810D01*
Y3224310D01*
X7703780Y3155710D01*
Y3101410D01*
G02X7691660Y3091440I-10159J-2D01*
G37*
G36*
G01X7864880Y2868770D02*
G02X7848240Y2872260I-7178J7188D01*
G03X7828470Y2893820I-37738J-14761D01*
G01X7827720Y2894190D01*
X7797800Y2924110D01*
Y2960390D01*
X7780020Y2978170D01*
Y2993590D01*
X7790220Y3003790D01*
Y3061840D01*
G02X7802410Y3071800I10161J4D01*
G03X7846820Y3093530I8095J39703D01*
G01X7847190Y3094280D01*
X7882040Y3129130D01*
G02X7899380Y3121940I7180J-7188D01*
G01Y3068960D01*
X7927330Y3041010D01*
G02X7920140Y3023670I-7188J-7180D01*
G01X7917150D01*
G03Y2957930I0J-32870D01*
G01X7963890D01*
G03X7974460Y2953690I19319J32865D01*
G01X7978380Y2952770D01*
Y2943670D01*
X7917150D01*
G03X7894940Y2886570I0J-32869D01*
G02X7888070Y2868920I-6865J-7490D01*
G01X7865030D01*
X7864880Y2868770D01*
G37*
G36*
G01X8026420Y3335350D02*
Y3405350D01*
G02X8043760Y3412540I10160J2D01*
G01X8070520Y3385780D01*
X8253200D01*
G02X8263240Y3374060I0J-10160D01*
G03X8268950Y3339590I55260J-8554D01*
G02X8259940Y3324720I-9004J-4709D01*
G01X8121190D01*
X8116090Y3319620D01*
X8103150D01*
G03X8043200Y3327640I-33551J-22720D01*
G02X8026420Y3335350I-6620J7706D01*
G37*
G36*
G01X9334500Y571500D02*
Y1206500D01*
X9794980D01*
Y1164520D01*
X9674480D01*
Y972480D01*
X9804520D01*
Y973480D01*
X10001780D01*
Y970780D01*
X10067220D01*
Y973480D01*
X10134480D01*
Y972480D01*
X10254480D01*
Y671940D01*
X10154040Y571500D01*
X9334500D01*
G37*
G36*
G01X9819920Y957080D02*
X9659080D01*
Y1179920D01*
X9794980D01*
Y1164520D01*
X9674480D01*
Y972480D01*
X9804520D01*
Y973480D01*
X10001780D01*
Y970780D01*
X10014920D01*
Y958080D01*
X9819920D01*
Y957080D01*
G37*
G36*
G01X10286390Y571500D02*
G02X10279200Y588840I-2J10160D01*
G01X10330720Y640360D01*
Y1186080D01*
X10327640Y1189160D01*
G02X10334830Y1206500I7188J7180D01*
G01X10604500D01*
Y571500D01*
X10286390D01*
G37*
%LPC*%
G75*
G36*
G01X3324590Y3898880D02*
X2517410D01*
G02Y3975120I-40910J38120D01*
G01X3324590D01*
G02Y3898880I40910J-38120D01*
G37*
G36*
G01X2435590Y2755880D02*
X2369150D01*
G02Y2832120I-83150J38120D01*
G01X2435590D01*
G02Y2755880I40910J-38120D01*
G37*
G36*
G01X604940Y3086120D02*
X1069890D01*
X1117620Y3038390D01*
Y2835190D01*
X1120690Y2832120D01*
X1186850D01*
G02Y2755880I83150J-38120D01*
G01X1089110D01*
X1041380Y2803610D01*
Y3006810D01*
X1038310Y3009880D01*
X604940D01*
G02Y3086120I-96940J38120D01*
G37*
G36*
G01X4538450Y2580780D02*
X4502890D01*
X4486390Y2597280D01*
X4471300D01*
G02X4447550Y2587130I-23750J22711D01*
G01X4315450D01*
G02Y2652870I0J32870D01*
G01X4447550D01*
G02X4471300Y2642720I0J-32861D01*
G01X4505210D01*
X4521710Y2626220D01*
X4538450D01*
G02Y2580780I33550J-22720D01*
G37*
G36*
G01X3335550Y2626220D02*
X3391690D01*
X3408190Y2642720D01*
X3442100D01*
G02X3465850Y2652870I23750J-22711D01*
G01X3597950D01*
G02Y2587130I0J-32870D01*
G01X3465850D01*
G02X3442100Y2597280I0J32861D01*
G01X3427010D01*
X3410510Y2580780D01*
X3335550D01*
G02Y2626220I-33550J22720D01*
G37*
G36*
G01X1231880Y2369150D02*
Y2470860D01*
X1010360Y2692380D01*
X898610D01*
X850880Y2740110D01*
Y2752810D01*
X847810Y2755880D01*
X604940D01*
G02Y2832120I-96940J38120D01*
G01X879390D01*
X927120Y2784390D01*
Y2771690D01*
X930190Y2768620D01*
X1041940D01*
X1308120Y2502440D01*
Y2369150D01*
G02X1231880I-38120J-83150D01*
G37*
G36*
G01X1186850Y1739880D02*
X845150D01*
G02X723880Y1861150I-83150J38120D01*
G01Y2501880D01*
X604940D01*
G02Y2578120I-96940J38120D01*
G01X800120D01*
Y1861150D01*
G02X845150Y1816120I-38120J-83150D01*
G01X1186850D01*
G02Y1739880I83150J-38120D01*
G37*
G36*
G01X5106560Y1471290D02*
Y1931710D01*
G03X5094760Y1941730I-10160J-7D01*
G02X5166780Y2003100I-14763J90269D01*
G01X5165790Y2000120D01*
X5182800Y1983110D01*
Y1502870D01*
X5185870Y1499800D01*
X5483310D01*
X5486380Y1502870D01*
Y1673590D01*
G02X5562620I38120J40910D01*
G01Y1471290D01*
X5514890Y1423560D01*
X5154290D01*
X5106560Y1471290D01*
G37*
G36*
G01X4416760Y1371620D02*
X5737310D01*
X5740380Y1374690D01*
Y1514390D01*
X5788110Y1562120D01*
X5991590D01*
G02X6086920Y1511120I40913J-38121D01*
G03X6096800Y1498620I9885J-2341D01*
G01X7388590D01*
G02Y1422380I40910J-38120D01*
G01X6081810D01*
X6076710Y1417280D01*
X5988290D01*
X5983190Y1422380D01*
X5883190D01*
X5880120Y1419310D01*
Y1353150D01*
G02X5761380Y1226780I-38123J-83149D01*
G01X4798310D01*
G02X4704190Y1282100I-40911J38122D01*
G03X4694520Y1295380I-9668J3121D01*
G01X4557050D01*
G03X4549860Y1278040I-2J-10160D01*
G01X4625910Y1201990D01*
X4536030Y1112110D01*
G03X4543220Y1094770I7188J-7180D01*
G01X4650770D01*
Y937230D01*
X4493230D01*
Y1044780D01*
G03X4475890Y1051970I-10160J2D01*
G01X4466480Y1042560D01*
X4418290D01*
G03X4408270Y1030760I7J-10160D01*
G02X4346900Y1102780I-90269J-14763D01*
G01X4349880Y1101790D01*
X4366890Y1118800D01*
X4434900D01*
X4518090Y1201990D01*
X4493300Y1226780D01*
X3765790D01*
X3703280Y1289290D01*
Y1377710D01*
X3765790Y1440220D01*
X4353010D01*
X4533880Y1621090D01*
Y1736810D01*
X4530810Y1739880D01*
X4401150D01*
G02Y1816120I-83150J38120D01*
G01X4562390D01*
X4610120Y1768390D01*
Y1589510D01*
X4409570Y1388960D01*
G03X4416760Y1371620I7188J-7180D01*
G37*
G36*
G01X4158710Y2564480D02*
G03X4150620Y2580780I-8094J6140D01*
G01X3716550D01*
G02Y2626220I-33550J22720D01*
G01X4148070D01*
X4244570Y2722720D01*
X4291700D01*
G02X4315450Y2732870I23750J-22711D01*
G01X4447550D01*
G02Y2667130I0J-32870D01*
G01X4315450D01*
G02X4291700Y2677280I0J32861D01*
G01X4263390D01*
X4183970Y2597860D01*
G03X4191130Y2580520I7188J-7180D01*
G02X4224550Y2562720I-131J-40520D01*
G01X4282580D01*
Y2572870D01*
X4480420D01*
Y2507130D01*
X4282580D01*
Y2517280D01*
X4224550D01*
G02X4158710Y2564480I-33552J22719D01*
G37*
G36*
G01X9314850Y2247880D02*
X9090110D01*
X9042390Y2295600D01*
X9003660Y2256880D01*
X8918180D01*
G02Y2315120I-28180J29120D01*
G01X8979540D01*
X8987880Y2323460D01*
Y2448320D01*
G02Y2504680I29120J28180D01*
G01Y2647220D01*
G02X8972480Y2680900I29129J33680D01*
G01Y2684240D01*
X8935040Y2721680D01*
X8914140D01*
X8913100Y2721180D01*
G02X8898850Y2717930I-14250J29615D01*
G01X8766750D01*
G02Y2783670I0J32870D01*
G01X8898850D01*
G02X8913100Y2780420I0J-32865D01*
G01X8914140Y2779920D01*
X8959160D01*
X8963810Y2775270D01*
G03X8972480Y2778860I3590J3595D01*
G01Y3549040D01*
X9150960Y3727520D01*
X9326600D01*
G03X9333740Y3744910I0J10161D01*
G02X9314850Y3771880I64252J65103D01*
G01X8981470D01*
Y3718530D01*
X8798530D01*
Y3901470D01*
X8981470D01*
Y3848120D01*
X9314850D01*
G02X9462260Y3744910I83149J-38117D01*
G03X9469400Y3727520I7140J-7229D01*
G01X9869300D01*
X9996300Y3600520D01*
X10178980D01*
Y3803040D01*
X10230460Y3854520D01*
X10334100D01*
G02Y3765480I79900J-44520D01*
G01X10268020D01*
Y3562960D01*
X10216540Y3511480D01*
X9959420D01*
X9952790Y3518110D01*
G03X9944120Y3514520I-3590J-3594D01*
G01Y3089190D01*
X9947190Y3086120D01*
X10076850D01*
G02X10129370Y3134190I83149J-38120D01*
G02X10190630I30630J-22690D01*
G02X10198120Y2964850I-30629J-86190D01*
G01Y2819380D01*
X9804380D01*
Y3454380D01*
X9436120D01*
Y3131150D01*
G02X9359880I-38120J-83150D01*
G01Y3517880D01*
X9250720D01*
Y3448290D01*
X9245620Y3443190D01*
Y3311610D01*
X9197890Y3263880D01*
X9157760D01*
X9156970Y3263610D01*
G02X9135910Y3262300I-12959J38391D01*
G03X9123720Y3252350I-2029J-9956D01*
G01Y2432290D01*
X9118620Y2427190D01*
Y2327190D01*
X9121690Y2324120D01*
X9314850D01*
G02X9481150I83150J-38120D01*
G01X10076850D01*
G02Y2247880I83150J-38120D01*
G01X9481150D01*
G02X9314850I-83150J38120D01*
G37*
G36*
G01X4411430Y3367700D02*
X4437280Y3341860D01*
X4439760Y3342180D01*
G02X4404820Y3307240I5240J-40180D01*
G01X4405140Y3309720D01*
X4392610Y3322260D01*
X4280240D01*
X4269570Y3311590D01*
Y3178750D01*
G02X4203830I-32870J0D01*
G01Y3310850D01*
G02X4235500Y3343700I32872J0D01*
G01X4237490Y3343770D01*
X4261420Y3367700D01*
X4411430D01*
G37*
G36*
G01X5547090Y3771880D02*
X5163150D01*
G02Y3848120I-83150J38120D01*
G01X5547090D01*
G02Y3771880I40910J-38120D01*
G37*
G54D26*
X8832800Y2830800D03*
Y2430800D03*
X3531900Y2700000D03*
G54D27*
X8288000Y3135600D03*
X4236700Y2395200D03*
X3676700D03*
X3756700D03*
X3836700D03*
X3916700D03*
X3996700D03*
X4156700D03*
X4076700Y3244800D03*
X3996700D03*
X3916700D03*
X3836700D03*
G54D25*
X8832800Y2670800D03*
Y2910800D03*
Y2990800D03*
Y2590800D03*
X4381500Y2780000D03*
Y2860000D03*
X3531900Y2540000D03*
X7983200Y2430800D03*
G54D32*
X8832800Y2510800D03*
G54D31*
X4076700Y2395200D03*
X8128000Y2286000D03*
G54D33*
X9457000Y1068500D03*
Y698500D03*
X10482000Y1068500D03*
Y698500D03*
G54D28*
X762000Y762000D03*
X2032000D03*
X5080000Y3302000D03*
G54D30*
X508000Y2286000D03*
X762000Y3810000D03*
G54D29*
Y1524000D03*
X5080000Y2286000D03*
X10160000Y2540000D03*
Y3302000D03*
%LPD*%
G75*
G36*
G01X9344540Y581540D02*
Y1196460D01*
X9649060D01*
Y947060D01*
X9829940D01*
Y948060D01*
X9996380D01*
Y581540D01*
X9534430D01*
G02X9526980Y598610I0J10161D01*
G03X9552440Y663500I-69963J64890D01*
G01Y733500D01*
G03X9361560I-95440J0D01*
G01Y663500D01*
G03X9387020Y598610I95423J0D01*
G02X9379570Y581540I-7450J-6909D01*
G01X9344540D01*
G37*
G36*
G01X9123720Y3418310D02*
X9141990Y3436580D01*
X9144090D01*
G03X9156880Y3438080I-75J55922D01*
G02X9169380Y3428200I2341J-9885D01*
G01Y3343190D01*
X9166310Y3340120D01*
X9157760D01*
X9156970Y3340390D01*
G03X9135910Y3341700I-12959J-38391D01*
G02X9123720Y3351660I-2029J9956D01*
G01Y3418310D01*
G37*
G36*
G01X9232900Y3594120D02*
G03X9205950Y3582950I8J-38117D01*
G01X9166700Y3543710D01*
X9163640Y3544860D01*
G03X9088080Y3492590I-19639J-52359D01*
G01Y3490490D01*
X9078860Y3481270D01*
G02X9061520Y3488460I-7180J7188D01*
G01Y3512160D01*
X9187840Y3638480D01*
X9832420D01*
X9859440Y3611460D01*
G02X9852250Y3594120I-7188J-7180D01*
G01X9232900D01*
G37*
G36*
G01X10072620Y581540D02*
Y948060D01*
X10109060D01*
Y947060D01*
X10244460D01*
Y676090D01*
X10149910Y581540D01*
X10072620D01*
G37*
G36*
G01X9880620Y2895620D02*
Y3020340D01*
G02X9897960Y3027530I10160J2D01*
G01X9915610Y3009880D01*
X10076850D01*
G03X10121880Y2964850I83150J38120D01*
G01Y2895620D01*
X9880620D01*
G37*
G36*
G01X10594460Y581540D02*
X10559430D01*
G02X10551980Y598610I0J10161D01*
G03X10577440Y663500I-69963J64890D01*
G01Y733500D01*
G03X10386560I-95440J0D01*
G01Y663500D01*
G03X10412020Y598610I95423J0D01*
G02X10404570Y581540I-7450J-6909D01*
G01X10310600D01*
G02X10303410Y598880I-2J10160D01*
G01X10340740Y636210D01*
Y1196460D01*
X10594460D01*
Y581540D01*
G37*
G54D10*
X1016000Y762000D03*
X762000Y1524000D03*
X1778000Y762000D03*
X2794000D03*
X3556000Y1016000D03*
X4572000D03*
X5080000Y2286000D03*
Y3048000D03*
X8890000Y3810000D03*
X10160000Y2540000D03*
Y3302000D03*
G54D11*
X762000Y762000D03*
Y1778000D03*
X1270000D03*
Y2286000D03*
Y3302000D03*
Y2794000D03*
X2032000Y762000D03*
X2286000Y1778000D03*
Y2286000D03*
Y2794000D03*
Y3302000D03*
X3048000Y762000D03*
X3810000Y1016000D03*
X3556000Y1778000D03*
X4064000Y3810000D03*
X4318000Y1016000D03*
Y1778000D03*
X5080000Y2032000D03*
Y3302000D03*
Y3810000D03*
X5842000Y762000D03*
Y1270000D03*
Y1778000D03*
Y2286000D03*
Y2794000D03*
Y3302000D03*
Y3810000D03*
X6858000Y762000D03*
Y1270000D03*
Y1778000D03*
Y2286000D03*
Y2794000D03*
Y3302000D03*
Y3810000D03*
X7874000Y762000D03*
Y1270000D03*
X8572500Y3810000D03*
X8890000Y762000D03*
Y1270000D03*
X9398000Y2286000D03*
Y3048000D03*
Y3810000D03*
X10160000Y2286000D03*
Y3048000D03*
X10414000Y3810000D03*
G54D20*
X9969500Y1068500D03*
X10034500D03*
X10099500D03*
X9839500D03*
X9904500D03*
G54D12*
X508000Y2286000D03*
Y2540000D03*
Y3048000D03*
Y2794000D03*
X762000Y3810000D03*
X1016000D03*
X1270000D03*
X1524000D03*
X7366000Y2286000D03*
Y2540000D03*
Y2794000D03*
Y3048000D03*
G54D21*
X10199500Y1068500D03*
X9739500D03*
G54D22*
G01X1270000Y1778000D02*
X762000D01*
G01X508000Y2540000D02*
X762000D01*
Y1778000D01*
G01X1270000Y2286000D02*
Y2486650D01*
X1026150Y2730500D01*
X914400D01*
X889000Y2755900D01*
Y2768600D01*
X863600Y2794000D01*
X508000D01*
G01X1270000D02*
X1104900D01*
X1079500Y2819400D01*
Y3022600D01*
X1054100Y3048000D01*
X508000D01*
G01X1270000Y3302000D02*
X1334680Y3366680D01*
Y3436520D01*
X1151700Y3619500D01*
X533400D01*
X508000Y3594100D01*
Y3302000D01*
G01X3093700Y1351300D02*
X2997200Y1447800D01*
Y2145000D01*
X2952700Y2189500D01*
Y2707400D01*
X2997200Y2751900D01*
Y3162300D01*
X2926100Y3233400D01*
X2892580D01*
X2874780Y3251200D01*
X2382500D01*
X2329150Y3197850D01*
X2242850D01*
X2181850Y3258850D01*
Y3345150D01*
X2268900Y3432200D01*
Y3526650D01*
X2239550Y3556000D01*
X1287050D01*
X1149900Y3693150D01*
X1132850D01*
X1016000Y3810000D01*
G01X3531900Y3100100D02*
X3136900D01*
X3111500Y3125500D01*
Y3340100D01*
X2794000Y3657600D01*
X2476500D01*
X2451100Y3683000D01*
X1546840D01*
X1524000Y3705840D01*
Y3810000D01*
G01X3365500Y3365500D02*
X3325970Y3405030D01*
Y3698270D01*
X3365500Y3737800D01*
Y3784600D01*
X3340100Y3810000D01*
X1778000D01*
G01X1270000D02*
Y3644900D01*
X1295400Y3619500D01*
X2387600D01*
X2413000Y3594100D01*
Y3395250D01*
X2455450Y3352800D01*
X2874780D01*
X2892580Y3370600D01*
X2949420D01*
X2989600Y3330420D01*
Y3305260D01*
X3048000Y3246860D01*
Y3045500D01*
X3073400Y3020100D01*
G01X2413000Y1206500D02*
X2222500D01*
X2181850Y1247150D01*
Y1821150D01*
X2413000Y2052300D01*
Y2260600D01*
X2387600Y2286000D01*
X2286000D01*
G01X2921000Y1714500D02*
X2857500Y1778000D01*
X2286000D01*
G01X2476500Y2794000D02*
X2286000D01*
G01Y3302000D02*
X2921000D01*
G01X3365500Y3937000D02*
X2476500D01*
G01X3810000Y1016000D02*
X3705850Y1120150D01*
X3474160D01*
X3370010Y1016000D01*
X3354550D01*
X3302000Y1068550D01*
Y1247080D01*
X3307300Y1252380D01*
Y1414620D01*
X3302000Y1419920D01*
Y1752600D01*
X3327400Y1778000D01*
X3556000D01*
G01X3238500Y381000D02*
X5651500D01*
G01X3111500Y1333500D02*
X3093700Y1351300D01*
G01D02*
X3092500D01*
X3054300Y1389500D01*
Y2131780D01*
X3116600Y2194080D01*
Y2250920D01*
X3054300Y2313220D01*
Y2665300D01*
X3111500Y2722500D01*
Y2914600D01*
X3136900Y2940000D01*
X3531900D01*
G01X3048000Y2222500D02*
X3008470Y2262030D01*
Y2273530D01*
X3003500Y2278500D01*
Y2686350D01*
X3048000Y2730850D01*
Y2994700D01*
X3073400Y3020100D01*
G01X3302000Y2603500D02*
X3401100D01*
X3417600Y2620000D01*
X3531900D01*
G01X3302000Y3175000D02*
X3391630D01*
X3434100Y3217470D01*
Y3263380D01*
X3423900Y3273580D01*
Y3326880D01*
X3434100Y3337080D01*
Y3415540D01*
X3378200Y3471440D01*
Y3678650D01*
X3504450Y3804900D01*
X3520920D01*
X3526020Y3810000D01*
X4064000D01*
G01X3531900Y3020100D02*
X3073400D01*
G01X2667000Y4064000D02*
Y4097000D01*
X2702600Y4132600D01*
X8346920D01*
X8387100Y4092420D01*
Y4035580D01*
X8382000Y4030480D01*
Y3835400D01*
X8407400Y3810000D01*
X8572500D01*
G01X5270500Y2603500D02*
X4787900D01*
X4762500Y2578100D01*
Y2446520D01*
X4826000Y2383020D01*
Y2326180D01*
X4767600Y2267780D01*
Y2257580D01*
X4727420Y2217400D01*
X4543580D01*
X4538480Y2222500D01*
X3516720D01*
X3491320Y2197100D01*
Y1842680D01*
X3556000Y1778000D01*
G01X4318000Y1016000D02*
X4382680Y1080680D01*
X4450690D01*
X4572000Y1201990D01*
X4509090Y1264900D01*
X3781580D01*
X3741400Y1305080D01*
Y1361920D01*
X3781580Y1402100D01*
X4368800D01*
X4572000Y1605300D01*
Y1752600D01*
X4546600Y1778000D01*
X4318000D01*
G01X6032500Y1524000D02*
X5803900D01*
X5778500Y1498600D01*
Y1358900D01*
X5753100Y1333500D01*
X3810000D01*
G01X3683000Y2603500D02*
X4157480D01*
X4253980Y2700000D01*
X4381500D01*
G01X3531900Y3100100D02*
X3543300Y3111500D01*
Y3128780D01*
X3561100Y3146580D01*
Y3207270D01*
X3543300Y3225070D01*
Y3255780D01*
X3561100Y3273580D01*
Y3330420D01*
X3543300Y3348220D01*
Y3530600D01*
X3632200Y3619500D01*
X3903480D01*
X3908580Y3614400D01*
X3965420D01*
X3970520Y3619500D01*
X6062480D01*
X6067580Y3624600D01*
X6124420D01*
X6164600Y3584420D01*
Y3527580D01*
X6124420Y3487400D01*
X6067580D01*
X6049780Y3505200D01*
X5892800D01*
X5842000Y3454400D01*
Y3302000D01*
G01X3492500Y3178850D02*
Y3467100D01*
X3467100Y3492500D01*
X3454400D01*
X3429000Y3517900D01*
Y3657600D01*
X3454400Y3683000D01*
X3937000D01*
G01X6096000Y3556000D02*
X5748520D01*
X5743420Y3561100D01*
X5686580D01*
X5681480Y3556000D01*
X4288020D01*
X4282920Y3561100D01*
X4226080D01*
X4220980Y3556000D01*
X4034020D01*
X4028920Y3561100D01*
X3972080D01*
X3966980Y3556000D01*
X3702100D01*
X3676700Y3530600D01*
Y3244800D01*
G01X3492500Y3873500D02*
Y3973920D01*
X3517900Y3999320D01*
X5751920D01*
X5777320Y3973920D01*
Y3874680D01*
X5842000Y3810000D01*
G01X4000500Y3492500D02*
X4131300D01*
X4156700Y3467100D01*
Y3244800D01*
G01X4757400Y1264900D02*
X5745440D01*
X5750540Y1270000D01*
X5842000D01*
G01X4699000Y2286000D02*
X4478520D01*
X4473420Y2280900D01*
X4366130D01*
X4325950Y2321080D01*
Y2377920D01*
X4366130Y2418100D01*
X4513600D01*
X4767600Y2672100D01*
G01X4572000Y2603500D02*
X4512300D01*
X4495800Y2620000D01*
X4381500D01*
G01X4191000Y2540000D02*
X4381500D01*
G01X4445000Y3302000D02*
X4402020Y3344980D01*
X4270830D01*
X4236700Y3310850D01*
Y3244800D01*
G01X5715000Y3492500D02*
X4254500D01*
G01X5524500Y1714500D02*
Y1487080D01*
X5499100Y1461680D01*
X5170080D01*
X5144680Y1487080D01*
Y1967320D01*
X5080000Y2032000D01*
G01Y3048000D02*
X5164020Y3132020D01*
X5220000D01*
X5274540Y3077480D01*
X5406120D01*
X5461000Y3022600D01*
X5301000Y2862600D01*
X5178580D01*
X5138400Y2822420D01*
Y2765580D01*
X5178580Y2725400D01*
X5257800D01*
X5346700Y2636500D01*
Y2395720D01*
X5328900Y2377920D01*
Y2321080D01*
X5369080Y2280900D01*
X5425920D01*
X5431020Y2286000D01*
X5458450Y2258570D01*
Y2253470D01*
X5455900Y2250920D01*
Y2194080D01*
X5461000Y2188980D01*
Y2002020D01*
X5455900Y1996920D01*
Y1940080D01*
X5496080Y1899900D01*
X5521240D01*
X5747290Y1673850D01*
X5885150D01*
X5946150Y1734850D01*
Y1988650D01*
X5989500Y2032000D01*
X7086600D01*
X7112000Y2006600D01*
Y1872000D01*
X7137400Y1846600D01*
X7620000D01*
G01X5524500Y1968500D02*
Y2133600D01*
X5544800Y2153900D01*
X5552920D01*
X5558020Y2159000D01*
X7023100D01*
X7048500Y2184400D01*
Y2252480D01*
X7043400Y2257580D01*
Y2314420D01*
X7048500Y2319520D01*
Y2366550D01*
X7094950Y2413000D01*
X7531100D01*
X7556500Y2438400D01*
Y2595140D01*
X7699460Y2738100D01*
X7970500D01*
X7983200Y2750800D01*
G01X5207000Y2794000D02*
X5478050D01*
X5516860Y2755190D01*
Y2730020D01*
X5557040Y2689840D01*
X5613880D01*
X5654060Y2730020D01*
Y2766580D01*
X5691680Y2804200D01*
X5748520D01*
X5758720Y2794000D01*
X5842000D01*
G01X5585460Y2758440D02*
X5500530Y2843370D01*
Y2881470D01*
X5461000Y2921000D01*
G01X5588000Y3810000D02*
X5080000D01*
G01X5842000Y762000D02*
X5740400D01*
X5715000Y736600D01*
Y414520D01*
X5720100Y409420D01*
Y401300D01*
X5778500Y342900D01*
X10604500D01*
X10668000Y406400D01*
Y2070100D01*
X10642600Y2095500D01*
X8834860D01*
X8831600Y2092240D01*
Y2067080D01*
X8791420Y2026900D01*
X8738120D01*
X8727920Y2037100D01*
X8724380D01*
X8694400Y2067080D01*
Y2092240D01*
X8688100Y2098540D01*
Y2286000D01*
G01X7983200Y2590800D02*
X7772400D01*
X7747000Y2565400D01*
Y2383020D01*
X7459480Y2095500D01*
X5740400D01*
X5715000Y2070100D01*
Y1803400D01*
X5740400Y1778000D01*
X5842000D01*
G01X7429500Y1460500D02*
X6066020D01*
X6060920Y1455400D01*
X6004080D01*
X5998980Y1460500D01*
X5867400D01*
X5842000Y1435100D01*
Y1270000D01*
G01Y1968500D02*
Y1778000D01*
G01X7983200Y2830800D02*
X7880820D01*
X7838920Y2788900D01*
X7782080D01*
X7700780Y2870200D01*
X7615650D01*
X7556500Y2811050D01*
Y2692400D01*
X7531100Y2667000D01*
X7200900D01*
X7175500Y2641600D01*
Y2628900D01*
X7150100Y2603500D01*
X7018520D01*
X7013420Y2608600D01*
X6956580D01*
X6951480Y2603500D01*
X6032500D01*
G01X7048500Y3423900D02*
X5969000D01*
G01X5842000Y3810000D02*
Y3708400D01*
X5867400Y3683000D01*
X7340600D01*
X7366000Y3657600D01*
Y3302000D01*
G01X9969500Y1068500D02*
Y1178900D01*
X9983200Y1192600D01*
X10270290D01*
X10292600Y1170290D01*
Y656150D01*
X10030150Y393700D01*
X7315200D01*
X7239000Y469900D01*
Y736600D01*
X7213600Y762000D01*
X6858000D01*
G01X9904500Y1068500D02*
Y1425480D01*
X9933240Y1454220D01*
Y1511060D01*
X9893060Y1551240D01*
X9867890D01*
X9826530Y1592600D01*
X7841000D01*
X7747000Y1498600D01*
Y1295400D01*
X7721600Y1270000D01*
X6858000D01*
G01X7366000Y2540000D02*
X7137400D01*
X7048500Y2451100D01*
Y2438400D01*
X7023100Y2413000D01*
X7010400D01*
X6985000Y2387600D01*
Y2311400D01*
X6959600Y2286000D01*
X6858000D01*
G01X7366000Y2794000D02*
X6858000D01*
G01Y3302000D02*
X7112000D01*
X7366000Y3048000D01*
G01X7493000Y3873500D02*
X7429500Y3810000D01*
X6858000D01*
G01X7810500Y1778000D02*
Y2061980D01*
X7713480Y2159000D01*
X7620000D01*
G01X7874000Y1524000D02*
Y1270000D01*
G01Y3810000D02*
Y3454400D01*
X7899400Y3429000D01*
X7912100D01*
X7937500Y3403600D01*
Y3084750D01*
X7983200Y3039050D01*
Y2990800D01*
G01X7810500Y3111500D02*
X7886700Y3187700D01*
Y3369850D01*
X7823200Y3433350D01*
Y3763780D01*
X7805400Y3781580D01*
Y3838420D01*
X7845580Y3878600D01*
X7902420D01*
X7942600Y3838420D01*
Y3781580D01*
X7924800Y3763780D01*
Y3509550D01*
X7988300Y3446050D01*
Y3227050D01*
X8079750Y3135600D01*
X8128000D01*
G01X7366000Y3302000D02*
X7785100D01*
X7810500Y3276600D01*
Y3208520D01*
X7741900Y3139920D01*
Y3083080D01*
X7752100Y3072880D01*
Y3019580D01*
X7741900Y3009380D01*
Y2962380D01*
X7759680Y2944600D01*
Y2908320D01*
X7810500Y2857500D01*
G01X7556500Y3423900D02*
X7663200Y3530600D01*
Y3742910D01*
X7754600Y3834310D01*
Y3859470D01*
X7824530Y3929400D01*
X7923470D01*
X7993400Y3859470D01*
Y3760530D01*
X7975600Y3742730D01*
Y3534610D01*
X8086310Y3423900D01*
X8279880D01*
X8290080Y3434100D01*
X8306890D01*
X8389600Y3516810D01*
Y3541970D01*
X8459530Y3611900D01*
X8558470D01*
X8576270Y3594100D01*
X8592800D01*
X8763000Y3423900D01*
G01X8608100Y2286000D02*
Y1805900D01*
X8636000Y1778000D01*
G01X8705800Y2472160D02*
Y2776050D01*
G01X8832800Y2430800D02*
X8747160D01*
X8705800Y2472160D01*
G01X8534400Y2830800D02*
X8509000Y2805400D01*
Y2628900D01*
X8483600Y2603500D01*
X8382000D01*
G01X8528000Y2286000D02*
Y1987500D01*
X8445500Y1905000D01*
G01X8448000Y2286000D02*
Y2034500D01*
G01X9144000Y1968500D02*
X8699500D01*
G01X8688100Y3135600D02*
X8728750D01*
G01X8688100D02*
Y3242300D01*
G01X8760550Y2830800D02*
X8534400D01*
G01X8705800Y2776050D02*
X8760550Y2830800D01*
G01X8368000Y3135600D02*
Y3021300D01*
X8331200Y2984500D01*
X8128000D01*
G01X8382000Y2921000D02*
X8448000Y2987000D01*
Y3135600D01*
G01X8528000D02*
Y3473500D01*
X8509000Y3492500D01*
G01X8318500Y3365500D02*
X8411980D01*
X8458200Y3411720D01*
Y3446280D01*
X8440400Y3464080D01*
Y3520920D01*
X8480580Y3561100D01*
X8537420D01*
X8577600Y3520920D01*
Y3495760D01*
X8608100Y3465260D01*
Y3135600D01*
G01X8069600Y3296900D02*
X8125500D01*
X8130600Y3302000D01*
X8284980D01*
X8290080Y3296900D01*
X8346920D01*
X8352020Y3302000D01*
X8445500D01*
G01X8318500Y4064000D02*
Y3556000D01*
G01X8890000Y762000D02*
X8991600D01*
X9017000Y736600D01*
Y469900D01*
X9042400Y444500D01*
X10009100D01*
X10034500Y469900D01*
Y1068500D01*
G01X8890000Y762000D02*
Y847100D01*
G01X8832800Y2430800D02*
Y2382550D01*
G01D02*
X8763000Y2312750D01*
Y2184400D01*
X8788400Y2159000D01*
X9144000D01*
G01Y3492500D02*
X9085600Y3434100D01*
Y3340620D01*
X9075400Y3330420D01*
Y3273580D01*
X9085600Y3263380D01*
Y2448080D01*
X9080500Y2442980D01*
Y2311400D01*
X9105900Y2286000D01*
X9398000D01*
G01X10160000D02*
X9398000D01*
G01X8760550Y2830800D02*
X8832800D01*
G01X10160000Y3048000D02*
X9931400D01*
X9906000Y3073400D01*
Y3530600D01*
X9880600Y3556000D01*
X9232900D01*
X9207500Y3530600D01*
Y3526020D01*
X9212600Y3520920D01*
Y3464080D01*
X9207500Y3458980D01*
Y3327400D01*
X9182100Y3302000D01*
X9144000D01*
G01X10160000Y3048000D02*
Y2857500D01*
X9842500D01*
Y3492500D01*
X9398000D01*
Y3048000D01*
G01Y3810000D02*
X8890000D01*
G01X10160000Y3111500D02*
Y3048000D01*
G54D13*
X508000Y3302000D03*
X1778000Y3810000D03*
X7366000Y3302000D03*
G54D23*
G01X762000Y762000D02*
X845850D01*
G01X678150D02*
X762000D01*
G01Y1524000D02*
X845850D01*
G01X762000D02*
Y1607850D01*
G01X508000Y2286000D02*
X604550D01*
G01X411450D02*
X508000D01*
G01D02*
Y2382550D01*
G01X762000Y3810000D02*
X858550D01*
G01X762000D02*
Y3906550D01*
G01Y3713450D02*
Y3810000D01*
G01X2032000Y762000D02*
X2115850D01*
G01X1948150D02*
X2032000D01*
G01D02*
Y845850D01*
G01X3048000Y762000D02*
X3131850D01*
G01X2964150D02*
X3048000D01*
G01X3556000Y1016000D02*
X3639850D01*
G01X3472150D02*
X3556000D01*
G01X4572000D02*
X4655850D01*
G01X4488150D02*
X4572000D01*
G01D02*
Y1099850D01*
G01X5080000Y2286000D02*
X5163850D01*
G01X5080000D02*
Y2369850D01*
G01Y3302000D02*
X5163850D01*
G01X5080000D02*
Y3385850D01*
G01Y3218150D02*
Y3302000D01*
G01X9144000Y2159000D02*
X10312400D01*
X10350500Y2197100D01*
Y2374900D01*
X10312400Y2413000D01*
X10198100D01*
X10160000Y2451100D01*
G01D02*
Y2540000D01*
G01X10076150Y3302000D02*
X10160000D01*
G01D02*
Y3385850D01*
G01Y3218150D02*
Y3302000D01*
G54D14*
X2413000Y1206500D03*
X2476500Y2794000D03*
Y3937000D03*
X2667000Y4064000D03*
X3238500Y381000D03*
X2921000Y1714500D03*
X3111500Y1333500D03*
X3302000Y2603500D03*
X3048000Y2222500D03*
X3302000Y3175000D03*
X2921000Y3302000D03*
X3365500Y3365500D03*
Y3937000D03*
X3810000Y1333500D03*
X3683000Y2603500D03*
X4191000Y2540000D03*
X3492500Y3178850D03*
X4127500Y2730500D03*
X3810000D03*
X4000500Y2984500D03*
X3746500Y3429000D03*
X3937000Y3683000D03*
X3492500Y3873500D03*
X4000500Y3492500D03*
X4757400Y1264900D03*
X4699000Y2286000D03*
X4394550Y2349500D03*
X4889500Y2286000D03*
X4757400Y2354600D03*
X4767600Y2672100D03*
X4572000Y2603500D03*
X4445000Y3302000D03*
X4254500Y3492500D03*
X5651500Y381000D03*
X5524500Y1714500D03*
X5207000Y2222500D03*
X5524500D03*
X5270500Y2603500D03*
X5524500Y1968500D03*
X5207000Y3048000D03*
X5015320Y3176180D03*
X5585460Y2758440D03*
X5461000Y3175000D03*
Y2921000D03*
X5207000Y2794000D03*
X5715000Y3492500D03*
X5588000Y3810000D03*
X6032500Y1524000D03*
Y2603500D03*
X5842000Y1968500D03*
X5969000Y3423900D03*
X6096000Y3556000D03*
X6985000Y2540000D03*
X7112000Y2286000D03*
X7048500Y3423900D03*
X7810500Y1778000D03*
X7874000Y1524000D03*
X7429500Y1460500D03*
X7620000Y1846600D03*
Y2159000D03*
X7683090Y3047750D03*
X7810500Y3111500D03*
X7556500Y3423900D03*
X7810500Y2857500D03*
X7874000Y3810000D03*
X7493000Y3873500D03*
X8636000Y1778000D03*
X8445500Y1905000D03*
X8763000Y1714500D03*
X8699500Y1968500D03*
X8191500Y2476500D03*
X8382000Y2603500D03*
X8448000Y2034500D03*
X8128000Y2984500D03*
X8382000Y2921000D03*
X8069600Y3296900D03*
X8445500Y3302000D03*
X8318500Y3365500D03*
X8763000Y3423900D03*
X8509000Y3492500D03*
X8318500Y3556000D03*
Y4064000D03*
X8890000Y1524000D03*
Y2286000D03*
X9144000Y1968500D03*
X9017000Y2476500D03*
X9144000Y3302000D03*
X9525000Y3238500D03*
X9144000Y3492500D03*
X9864640Y1482640D03*
X10604500Y2540000D03*
G54D24*
G01X2032000Y342900D02*
X1993900Y381000D01*
X787400D01*
X762000Y406400D01*
G01D02*
Y762000D01*
G01X1016000D02*
X1778000D01*
G01X762000Y1524000D02*
Y762000D01*
G01X508000Y2286000D02*
Y1524000D01*
G01D02*
X762000D01*
G01X508000Y2286000D02*
X381000Y2413000D01*
G01D02*
Y3784600D01*
X406400Y3810000D01*
G01D02*
X762000D01*
G01X2794000Y762000D02*
Y927100D01*
X2768600Y952500D01*
X2446520D01*
X2441420Y947400D01*
X2384580D01*
X2379480Y952500D01*
X1803400D01*
X1778000Y927100D01*
Y762000D01*
G01X2032000Y342900D02*
X2070100Y381000D01*
X3022600D01*
X3048000Y406400D01*
G01X2032000Y762000D02*
Y342900D01*
G01X3048000Y406400D02*
Y762000D01*
G01X3556000D02*
X3491320Y697320D01*
X3112680D01*
G01D02*
X3048000Y762000D01*
G01X3467460Y927460D02*
X3362190D01*
X3233400Y1056250D01*
Y1259380D01*
X3250100Y1276080D01*
Y1390920D01*
X3233400Y1407620D01*
Y2140030D01*
X3237400Y2144030D01*
Y2300970D01*
X3233400Y2304970D01*
Y2566030D01*
X3227000Y2572430D01*
Y2634570D01*
X3270930Y2678500D01*
X3275400D01*
X3327400Y2730500D01*
X3387100D01*
X3417600Y2700000D01*
G01X2794000Y762000D02*
X2921000Y889000D01*
X3111500D01*
X3209760Y790740D01*
X3263800D01*
X3302000Y828940D01*
Y897700D01*
X3111500Y1088200D01*
Y1227430D01*
X3186500Y1302430D01*
Y1364570D01*
X3111500Y1439570D01*
Y2108080D01*
X3173800Y2170380D01*
Y2274620D01*
X3111500Y2336920D01*
Y2641600D01*
X3327400Y2857500D01*
X3415100D01*
X3417600Y2860000D01*
X3531900D01*
G01X3556000Y762000D02*
Y596900D01*
X3581400Y571500D01*
X4546600D01*
X4572000Y596900D01*
G01X3556000Y1016000D02*
Y762000D01*
G01Y1016000D02*
X3467460Y927460D01*
G01X3417600Y2700000D02*
X3531900D01*
G01D02*
X3709700D01*
G01D02*
X3740200Y2730500D01*
X3810000D01*
G01X4000500Y2984500D02*
Y3074700D01*
X4025900Y3100100D01*
G01D02*
X4381500D01*
G01Y3020100D02*
X4107960D01*
X4075500Y2987640D01*
Y2953430D01*
X4031570Y2909500D01*
X3969430D01*
X3925500Y2953430D01*
Y2987640D01*
X3893040Y3020100D01*
X3848100D01*
X3688000Y2860000D01*
X3531900D01*
G01X4572000Y596900D02*
Y1016000D01*
G01X4757400Y2354600D02*
X4713340Y2398660D01*
X4587640D01*
X4538480Y2349500D01*
X4394550D01*
G01X4889500Y2286000D02*
X5080000D01*
G01X4381500Y3100100D02*
X4737100D01*
G01D02*
X4939000Y3302000D01*
G01X5207000Y3048000D02*
Y2984500D01*
X5190550Y2968050D01*
Y2963510D01*
X5164490Y2937450D01*
X4995510D01*
X4969450Y2963510D01*
Y2972560D01*
X4921910Y3020100D01*
X4381500D01*
G01X5524500Y2222500D02*
Y2514600D01*
X5549900Y2540000D01*
X5989930D01*
X6005480Y2524450D01*
X6059520D01*
X6075070Y2540000D01*
X6985000D01*
G01X5207000Y2222500D02*
X5105400D01*
X5080000Y2247900D01*
Y2286000D01*
G01X5015320Y3176180D02*
Y3237320D01*
G01D02*
X5080000Y3302000D01*
G01X4939000D02*
X5080000D01*
G01X7683090Y3047750D02*
X7639030Y3003690D01*
Y3003530D01*
X7556500Y2921000D01*
X7302500D01*
X7175500Y3048000D01*
X5994400D01*
X5969000Y3073400D01*
Y3149600D01*
X5943600Y3175000D01*
X5461000D01*
G01X8288000Y2286000D02*
Y1747500D01*
X8255000Y1714500D01*
X7874000D01*
X7810500Y1651000D01*
X6883400D01*
X6858000Y1676400D01*
Y1778000D01*
G01X7366000Y2286000D02*
X7112000D01*
G01X8890000Y1270000D02*
Y1016000D01*
X7874000D01*
Y762000D01*
G01X7717050Y2670800D02*
X7632700Y2586450D01*
Y2417340D01*
X7501360Y2286000D01*
G01D02*
X7366000D01*
G01X7983200Y2670800D02*
X7717050D01*
G01X8763000Y1714500D02*
X8678570D01*
X8667070Y1703000D01*
X8604930D01*
X8593430Y1714500D01*
X8479020D01*
X8473920Y1709400D01*
X8417080D01*
X8411980Y1714500D01*
X8368000D01*
Y2286000D01*
G01X7983200Y2510800D02*
X8097500D01*
G01D02*
X8131800Y2476500D01*
X8191500D01*
G01X8097500Y2670800D02*
X8101300Y2667000D01*
X8102600D01*
X8128000Y2641600D01*
Y2536200D01*
X8102600Y2510800D01*
X8097500D01*
G01X8368000Y2286000D02*
X8288000D01*
G01X7983200Y2910800D02*
X8103900D01*
X8116550Y2898150D01*
X8168650D01*
X8191500Y2921000D01*
X8255000D01*
X8288000Y2888000D01*
Y2286000D01*
G01X8688100Y2957800D02*
X8531250D01*
X8382000Y2808550D01*
Y2603500D01*
G01X8688100Y3135600D02*
Y2957800D01*
G01X7983200Y2670800D02*
X8097500D01*
G01X8890000Y1270000D02*
Y1524000D01*
G01X9017000Y2476500D02*
Y2680900D01*
G01X8890000Y2286000D02*
X8991600D01*
X9017000Y2311400D01*
Y2476500D01*
G01Y2680900D02*
Y3530600D01*
X9169400Y3683000D01*
X9850860D01*
X9977860Y3556000D01*
X10198100D01*
X10223500Y3581400D01*
Y3784600D01*
X10248900Y3810000D01*
X10414000D01*
G01X9017000Y2680900D02*
X8947100Y2750800D01*
X8832800D01*
G01X9839500Y1068500D02*
Y1400000D01*
G01D02*
X9796960Y1442540D01*
Y1478460D01*
X9814930Y1496430D01*
X9850850D01*
X9864640Y1482640D01*
G01X10160000Y2540000D02*
X10287000D01*
G01X9525000Y3238500D02*
Y2565400D01*
X9550400Y2540000D01*
G01D02*
X10160000D01*
G01X10287000Y3302000D02*
X10160000D01*
G01X10604500Y2540000D02*
X10287000D01*
G01D02*
Y3302000D01*
G54D15*
X4156700Y2395200D03*
X3996700D03*
X3916700D03*
X3836700D03*
X3756700D03*
X3676700D03*
Y3244800D03*
X3756700D03*
X3836700D03*
X3916700D03*
X3996700D03*
X4076700D03*
X4236700Y2395200D03*
Y3244800D03*
X8688100Y2286000D03*
X8608100D03*
X8528000D03*
X8448000D03*
X8368000D03*
X8288000D03*
X8208000D03*
X8128000Y3135600D03*
X8208000D03*
X8288000D03*
X8368000D03*
X8528000D03*
X8608100D03*
X8688100D03*
G54D16*
X4076700Y2395200D03*
X4156700Y3244800D03*
X8128000Y2286000D03*
X8448000Y3135600D03*
G54D17*
X3531900Y2540000D03*
Y2620000D03*
Y2700000D03*
Y2780000D03*
Y2940000D03*
Y3020100D03*
Y3100100D03*
X4381500Y2620000D03*
Y3100100D03*
Y3020100D03*
Y2940000D03*
Y2860000D03*
Y2780000D03*
Y2700000D03*
X7983200Y2430800D03*
Y2510800D03*
Y2670800D03*
Y2750800D03*
Y2830800D03*
Y2910800D03*
Y2990800D03*
X8832800Y2590800D03*
Y2430800D03*
Y2990800D03*
Y2910800D03*
Y2830800D03*
Y2750800D03*
Y2670800D03*
G54D18*
X3531900Y2860000D03*
X4381500Y2540000D03*
X7983200Y2590800D03*
X8832800Y2510800D03*
G54D19*
X9457000Y698500D03*
Y1068500D03*
X10482000Y698500D03*
Y1068500D03*
M02*
